<svg width="221" height="73" viewBox="0 0 221 73" fill="none" xmlns="http://www.w3.org/2000/svg">
<path d="M8.64772 12.2226C11.6892 12.2226 14.027 12.8581 15.6612 14.1292C17.3181 15.3775 18.1466 17.2274 18.1466 19.6787C18.1466 22.2435 17.2954 24.2068 15.5931 25.5687C13.8908 26.9078 11.6438 27.5774 8.852 27.5774H0V3.91531H15.3208L14.7079 8.64772H6.29854V12.2226H8.64772ZM8.13703 23.0833C9.2719 23.0833 10.1231 22.7996 10.6905 22.2321C11.2806 21.6647 11.5757 20.8362 11.5757 19.7468C11.5757 17.5905 10.3841 16.5124 8.00084 16.5124H6.29854V23.0833H8.13703Z" fill="#282828"/>
<path d="M36.8579 27.5774H31.1381V21.6193C31.1381 19.3042 31.4218 17.1479 31.9893 15.1505L26.3717 27.5774H20.3795V9.43078H26.1333V15.491C26.1333 17.8969 25.8496 20.0532 25.2822 21.9598L30.7977 9.43078H36.8579V27.5774Z" fill="#282828"/>
<path d="M56.2264 9.43078V27.5774H50.1662V13.8227H47.3404L47.068 17.0571C46.8183 19.7808 46.5119 21.8122 46.1488 23.1514C45.8083 24.4678 45.1955 25.5119 44.3103 26.2836C43.4478 27.0553 42.12 27.6341 40.3269 28.02L38.8629 23.6621C39.5892 23.3216 40.0999 22.9698 40.395 22.6066C40.7127 22.2435 40.9397 21.6647 41.0759 20.8703C41.2348 20.0759 41.3823 18.714 41.5185 16.7848L42.0292 9.43078H56.2264Z" fill="#282828"/>
<path d="M74.827 21.9938C74.827 22.652 74.9065 23.14 75.0654 23.4578C75.2469 23.7756 75.5534 24.0139 75.9846 24.1728L74.7589 28.0881C73.6014 27.9973 72.6481 27.759 71.8991 27.3731C71.1501 26.9872 70.5486 26.3744 70.0946 25.5346C68.9371 27.305 67.1213 28.1902 64.6472 28.1902C62.8541 28.1902 61.4129 27.6682 60.3234 26.6241C59.2566 25.5573 58.7232 24.1841 58.7232 22.5045C58.7232 20.5071 59.4609 18.9751 60.9362 17.9083C62.4116 16.8415 64.5451 16.3081 67.3369 16.3081H68.903V15.6953C68.903 14.7193 68.6987 14.0611 68.2902 13.7206C67.8816 13.3574 67.144 13.1759 66.0772 13.1759C65.5097 13.1759 64.7948 13.2666 63.9323 13.4482C63.0925 13.6071 62.23 13.8341 61.3448 14.1292L60.017 10.2138C61.1064 9.7599 62.2754 9.41943 63.5237 9.19246C64.7721 8.94279 65.9296 8.81795 66.9964 8.81795C69.7201 8.81795 71.7061 9.36269 72.9545 10.4522C74.2029 11.5189 74.827 13.1645 74.827 15.3889V21.9938ZM66.4857 23.9344C66.9851 23.9344 67.439 23.8096 67.8476 23.5599C68.2788 23.2876 68.6306 22.9358 68.903 22.5045V19.5425H67.8816C66.7922 19.5425 65.9864 19.7468 65.4643 20.1553C64.9423 20.5412 64.6813 21.1313 64.6813 21.9257C64.6813 22.5386 64.8402 23.0265 65.1579 23.3897C65.4757 23.7529 65.9183 23.9344 66.4857 23.9344Z" fill="#282828"/>
<path d="M94.9757 27.5774H89.256V21.6193C89.256 19.3042 89.5397 17.1479 90.1071 15.1505L84.4895 27.5774H78.4974V9.43078H84.2512V15.491C84.2512 17.8969 83.9675 20.0532 83.4 21.9598L88.9155 9.43078H94.9757V27.5774ZM86.7365 6.16235C84.898 6.16235 83.4568 5.65166 82.4127 4.63028C81.3913 3.60889 80.8125 2.24705 80.6763 0.544739L83.9107 0C84.115 0.703621 84.4441 1.21431 84.898 1.53208C85.352 1.84984 85.9648 2.00872 86.7365 2.00872C87.531 2.00872 88.1551 1.84984 88.6091 1.53208C89.0857 1.21431 89.4148 0.703621 89.5964 0L92.8308 0.544739C92.6946 2.24705 92.1045 3.60889 91.0604 4.63028C90.039 5.65166 88.5977 6.16235 86.7365 6.16235Z" fill="#282828"/>
<path d="M108.795 20.5979H104.573V27.5774H98.5128V9.43078H104.573V16.206H108.795V9.43078H114.855V27.5774H108.795V20.5979Z" fill="#282828"/>
<path d="M18.8275 65.3044H12.529V46.4429H6.29854V65.3044H0V41.6424H18.8275V65.3044Z" fill="#282828"/>
<path d="M33.0982 46.545C35.4133 46.545 37.1383 47.3848 38.2732 49.0644C39.4308 50.744 40.0095 53.1159 40.0095 56.1801C40.0095 58.0413 39.7145 59.7095 39.1243 61.1849C38.5342 62.6602 37.6831 63.8178 36.5709 64.6576C35.4814 65.4974 34.2217 65.9173 32.7918 65.9173C30.976 65.9173 29.5347 65.3044 28.4679 64.0788V72.3179L22.4077 72.9308V47.1578H27.787L28.0253 49.0644C28.7289 48.2019 29.5347 47.5664 30.4426 47.1578C31.3505 46.7493 32.2357 46.545 33.0982 46.545ZM30.8511 61.5594C32.7804 61.5594 33.745 59.789 33.745 56.2482C33.745 54.1827 33.5294 52.7868 33.0982 52.0605C32.6669 51.3115 32.0087 50.937 31.1235 50.937C30.0794 50.937 29.1942 51.5725 28.4679 52.8436V60.1294C28.8084 60.6288 29.1602 60.9919 29.5233 61.2189C29.9092 61.4459 30.3518 61.5594 30.8511 61.5594Z" fill="#282828"/>
<path d="M50.9266 46.545C53.7638 46.545 55.9882 47.3962 57.5997 49.0985C59.2112 50.8008 60.017 53.184 60.017 56.2482C60.017 58.2001 59.6538 59.9025 58.9275 61.3551C58.2012 62.8077 57.1457 63.9313 55.7612 64.7257C54.3994 65.5201 52.7878 65.9173 50.9266 65.9173C48.0895 65.9173 45.8651 65.0661 44.2536 63.3638C42.6421 61.6615 41.8363 59.2783 41.8363 56.2141C41.8363 54.2621 42.1995 52.5598 42.9258 51.1072C43.6521 49.6546 44.6962 48.531 46.058 47.7366C47.4426 46.9422 49.0655 46.545 50.9266 46.545ZM50.9266 50.937C49.9507 50.937 49.2243 51.3682 48.7477 52.2307C48.2937 53.0705 48.0668 54.3983 48.0668 56.2141C48.0668 58.098 48.2937 59.4599 48.7477 60.2997C49.2243 61.1168 49.9507 61.5253 50.9266 61.5253C51.9026 61.5253 52.6176 61.1054 53.0716 60.2656C53.5482 59.4031 53.7865 58.064 53.7865 56.2482C53.7865 54.387 53.5482 53.0365 53.0716 52.1967C52.6176 51.3569 51.9026 50.937 50.9266 50.937Z" fill="#282828"/>
<path d="M79.4307 60.9125V71.0923H75.3452L74.6983 65.3044H65.2675L64.6206 71.0923H60.5351V60.9125H61.6246C61.9877 60.6401 62.2942 60.277 62.5438 59.823C62.7935 59.3691 63.0205 58.6201 63.2248 57.576C63.429 56.5319 63.6106 55.0566 63.7695 53.15L64.2461 47.1578H77.4901V60.9125H79.4307ZM71.8725 51.0732H69.4212L69.285 52.6393C69.058 55.2041 68.6948 57.0993 68.1955 58.325C67.7188 59.5279 67.0039 60.3904 66.0506 60.9125H71.8725V51.0732Z" fill="#282828"/>
<path d="M92.767 55.3289C95.8765 55.6921 97.4313 57.2015 97.4313 59.8571C97.4313 61.6729 96.6823 63.0347 95.1842 63.9426C93.7089 64.8505 91.7002 65.3044 89.1581 65.3044H81.1572V47.3621C84.1306 46.8174 86.6387 46.545 88.6814 46.545C91.2008 46.545 93.1528 46.9649 94.5374 47.8047C95.9446 48.6218 96.6482 49.8361 96.6482 51.4477C96.6482 52.4464 96.3191 53.2862 95.6609 53.9671C95.0254 54.6253 94.0607 55.0793 92.767 55.3289ZM88.6133 50.2901C88.1594 50.2901 87.6941 50.3241 87.2174 50.3922V54.2054H88.6474C89.2829 54.2054 89.7823 54.0465 90.1454 53.7288C90.5086 53.3883 90.6902 52.889 90.6902 52.2307C90.6902 51.5952 90.5086 51.1185 90.1454 50.8008C89.805 50.4603 89.2943 50.2901 88.6133 50.2901ZM88.8517 61.4572C89.6007 61.4572 90.1795 61.287 90.588 60.9465C91.0193 60.5834 91.2349 60.0386 91.2349 59.3123C91.2349 57.8824 90.4745 57.1674 88.9538 57.1674H87.2174V61.4572H88.8517Z" fill="#282828"/>
<path d="M116.487 65.3044H110.768V59.3464C110.768 57.0312 111.051 54.875 111.619 52.8776L106.001 65.3044H100.009V47.1578H105.763V53.2181C105.763 55.624 105.479 57.7802 104.912 59.6868L110.427 47.1578H116.487V65.3044Z" fill="#282828"/>
<path d="M140.043 55.6013L144.469 65.3044H138.375L135.345 57.7122H133.949V65.3044H128.74V57.7122H127.344L124.314 65.3044H118.254L122.646 55.6013L118.594 47.1578H124.246L127.242 54.2054H128.74V47.1578H133.949V54.2054H135.447L138.511 47.1578H144.129L140.043 55.6013Z" fill="#282828"/>
<path d="M161.97 55.9418C161.97 56.0779 161.936 56.7589 161.868 57.9845H150.735C150.916 59.3691 151.314 60.3224 151.926 60.8444C152.562 61.3437 153.458 61.5934 154.616 61.5934C155.297 61.5934 155.967 61.4686 156.625 61.2189C157.306 60.9465 158.043 60.538 158.838 59.9932L161.289 63.3298C160.336 64.1242 159.246 64.7597 158.021 65.2364C156.795 65.6903 155.467 65.9173 154.037 65.9173C150.95 65.9173 148.601 65.0548 146.99 63.3298C145.401 61.5821 144.606 59.2442 144.606 56.3163C144.606 54.4778 144.936 52.8209 145.594 51.3455C146.275 49.8702 147.273 48.7013 148.59 47.8388C149.906 46.9763 151.495 46.545 153.356 46.545C156.012 46.545 158.111 47.3735 159.655 49.0304C161.198 50.6646 161.97 52.9684 161.97 55.9418ZM156.012 54.2394C155.989 53.0365 155.785 52.1059 155.399 51.4477C155.013 50.7894 154.366 50.4603 153.458 50.4603C152.641 50.4603 152.006 50.7667 151.552 51.3796C151.121 51.9697 150.848 52.9911 150.735 54.4437H156.012V54.2394Z" fill="#282828"/>
<path d="M174.726 58.325H170.504V65.3044H164.444V47.1578H170.504V53.933H174.726V47.1578H180.786V65.3044H174.726V58.325Z" fill="#282828"/>
<path d="M200.805 65.3044H195.085V59.3464C195.085 57.0312 195.369 54.875 195.936 52.8776L190.318 65.3044H184.326V47.1578H190.08V53.2181C190.08 55.624 189.796 57.7802 189.229 59.6868L194.744 47.1578H200.805V65.3044Z" fill="#282828"/>
<path d="M220.786 55.9418C220.786 56.0779 220.752 56.7589 220.684 57.9845H209.551C209.732 59.3691 210.13 60.3224 210.742 60.8444C211.378 61.3437 212.275 61.5934 213.432 61.5934C214.113 61.5934 214.783 61.4686 215.441 61.2189C216.122 60.9465 216.859 60.538 217.654 59.9932L220.105 63.3298C219.152 64.1242 218.062 64.7597 216.837 65.2364C215.611 65.6903 214.283 65.9173 212.853 65.9173C209.766 65.9173 207.417 65.0548 205.806 63.3298C204.217 61.5821 203.423 59.2442 203.423 56.3163C203.423 54.4778 203.752 52.8209 204.41 51.3455C205.091 49.8702 206.089 48.7013 207.406 47.8388C208.722 46.9763 210.311 46.545 212.172 46.545C214.828 46.545 216.927 47.3735 218.471 49.0304C220.014 50.6646 220.786 52.9684 220.786 55.9418ZM214.828 54.2394C214.805 53.0365 214.601 52.1059 214.215 51.4477C213.829 50.7894 213.182 50.4603 212.275 50.4603C211.457 50.4603 210.822 50.7667 210.368 51.3796C209.937 51.9697 209.664 52.9911 209.551 54.4437H214.828V54.2394Z" fill="#282828"/>
<circle cx="133.325" cy="18.3849" r="9.87338" fill="#FFCF23"/>
</svg>
