<svg width="54" height="54" viewBox="0 0 54 54" fill="none" xmlns="http://www.w3.org/2000/svg">
  <path
    d="M23.352 7.81136 L23.3518 7.81153 C21.5893 9.70692 20.6971 12.3129 20.9018 15.2018 C21.3328 21.0569 25.7637 25.5 30.3745 25.5 C34.9755 25.5 39.4088 21.0579 39.8473 15.2013 M 23.352 7.81136 C25.0965 5.93472 27.5734 4.875 30.3745 4.875 C33.1438 4.875 35.621 5.93766 37.3846 7.83274 M37.3848 7.83299 C39.1656 9.75034 40.058 12.3513 39.8473 15.2011"
    stroke="black" stroke-width="3"/>

  <path d="M10.412 48.4876 C10.5823 48.6921 10.7932 48.8538 11.0317 48.9636 C11.2702 49.0735 11.5302 49.1286 11.7928 49.1251 H11.8128H48.9378H48.9485 C49.2219 49.1289 49.4821 49.0739 49.7208 48.9641C49.9595 48.8544 50.1707 48.6927 50.3388 48.4909 C50.7151 48.0398 50.9029 47.379 50.7711 46.6465 C49.9568 42.1303 47.4243 38.3283 43.3797 35.6319C39.7684 33.2248 35.1492 31.875 30.3753 31.875C25.6015 31.875 20.9823 33.2247 17.3709 35.6309 M10.412 48.4876C10.0356 48.0377 9.84787 47.3781 9.9794 46.646 M9.9795 46.6454C10.7937 42.1294 13.3262 38.3275 17.3706 35.6311" stroke="#000" stroke-width="3" />

  <path
    d="M10.9688 30.375V26.1562H15.1875C15.6351 26.1562 16.0643 25.9785 16.3807 25.662C16.6972 25.3455 16.875 24.9163 16.875 24.4688C16.875 24.0212 16.6972 23.592 16.3807 23.2755C16.0643 22.959 15.6351 22.7812 15.1875 22.7812H10.9688V18.5625C10.9688 18.1149 10.791 17.6857 10.4745 17.3693C10.158 17.0528 9.7288 16.875 9.28125 16.875C8.8337 16.875 8.40448 17.0528 8.08801 17.3693C7.77154 17.6857 7.59375 18.1149 7.59375 18.5625V22.7812H3.375C2.92745 22.7812 2.49822 22.959 2.18176 23.2755C1.86529 23.592 1.6875 24.0212 1.6875 24.4688C1.6875 24.9163 1.86529 25.3455 2.18176 25.662C2.49822 25.9785 2.92745 26.1562 3.375 26.1562H7.59375V30.375C7.59375 30.8226 7.77154 31.2518 8.08801 31.5682C8.40448 31.8847 8.8337 32.0625 9.28125 32.0625C9.7288 32.0625 10.158 31.8847 10.4745 31.5682C10.791 31.2518 10.9688 30.8226 10.9688 30.375Z"
    fill="black"/>
</svg>
