<svg width="28" height="22" viewBox="0 0 28 22" fill="none" xmlns="http://www.w3.org/2000/svg">
  <path
    d="M0.584826 2.20384C4.42772 5.45835 11.1708 11.184 13.1527 12.9693C13.4187 13.2103 13.7041 13.3328 14.0003 13.3328C14.296 13.3328 14.5808 13.2114 14.8463 12.9716C16.8299 11.1846 23.5729 5.45835 27.4159 2.20384C27.6551 2.00161 27.6916 1.64614 27.4979 1.3989C27.0501 0.827578 26.3825 0.5 25.667 0.5H2.33368C1.6182 0.5 0.950522 0.827578 0.502795 1.39895C0.309092 1.64614 0.345568 2.00161 0.584826 2.20384Z"
    fill="currentColor"
  />
  <path
    d="M27.6616 3.96736C27.4549 3.87111 27.2116 3.90469 27.0396 4.05169C22.7779 7.66446 17.3388 12.2953 15.6275 13.8373C14.667 14.7043 13.334 14.7043 12.3713 13.8362C10.5472 12.1927 4.43931 7.00022 0.960422 4.05164C0.787227 3.90464 0.54343 3.87221 0.338352 3.96731C0.13218 4.06307 0 4.26929 0 4.49657V19.1665C0 20.4534 1.04645 21.4999 2.33335 21.4999H25.6667C26.9536 21.4999 28 20.4534 28 19.1665V4.49657C28 4.26929 27.8678 4.06252 27.6616 3.96736Z"
    fill="currentColor"
  />
</svg>
