<svg width="23" height="21" viewBox="0 0 23 21" fill="none" xmlns="http://www.w3.org/2000/svg">
<path d="M15.5 2H6.75C6.28587 2 5.84075 2.18964 5.51256 2.52721C5.18437 2.86477 5 3.32261 5 3.8V18.2C5 18.6774 5.18437 19.1352 5.51256 19.4728C5.84075 19.8104 6.28587 20 6.75 20H17.25C17.7141 20 18.1592 19.8104 18.4874 19.4728C18.8156 19.1352 19 18.6774 19 18.2V5.34286L15.5 2Z" stroke="#282828" stroke-width="1.5" stroke-linecap="round" stroke-linejoin="round"/>
<rect x="2" y="7" width="20" height="10" rx="1" fill="white" stroke="#282828" stroke-width="1.5" stroke-linejoin="round"/>
<path d="M4.57812 15V9.27344H6.43359C7.13672 9.27344 7.59505 9.30208 7.80859 9.35938C8.13672 9.44531 8.41146 9.63281 8.63281 9.92188C8.85417 10.2083 8.96484 10.5794 8.96484 11.0352C8.96484 11.3867 8.90104 11.6823 8.77344 11.9219C8.64583 12.1615 8.48307 12.3503 8.28516 12.4883C8.08984 12.6237 7.89062 12.7135 7.6875 12.7578C7.41146 12.8125 7.01172 12.8398 6.48828 12.8398H5.73438V15H4.57812ZM5.73438 10.2422V11.8672H6.36719C6.82292 11.8672 7.1276 11.8372 7.28125 11.7773C7.4349 11.7174 7.55469 11.6237 7.64062 11.4961C7.72917 11.3685 7.77344 11.2201 7.77344 11.0508C7.77344 10.8424 7.71224 10.6706 7.58984 10.5352C7.46745 10.3997 7.3125 10.3151 7.125 10.2812C6.98698 10.2552 6.70964 10.2422 6.29297 10.2422H5.73438ZM9.91016 9.27344H12.0234C12.5 9.27344 12.8633 9.3099 13.1133 9.38281C13.4492 9.48177 13.737 9.65755 13.9766 9.91016C14.2161 10.1628 14.3984 10.4727 14.5234 10.8398C14.6484 11.2044 14.7109 11.6549 14.7109 12.1914C14.7109 12.6628 14.6523 13.069 14.5352 13.4102C14.3919 13.8268 14.1875 14.1641 13.9219 14.4219C13.7214 14.6172 13.4505 14.7695 13.1094 14.8789C12.8542 14.9596 12.513 15 12.0859 15H9.91016V9.27344ZM11.0664 10.2422V14.0352H11.9297C12.2526 14.0352 12.4857 14.0169 12.6289 13.9805C12.8164 13.9336 12.9714 13.8542 13.0938 13.7422C13.2188 13.6302 13.3203 13.4466 13.3984 13.1914C13.4766 12.9336 13.5156 12.5833 13.5156 12.1406C13.5156 11.6979 13.4766 11.3581 13.3984 11.1211C13.3203 10.8841 13.2109 10.6992 13.0703 10.5664C12.9297 10.4336 12.7513 10.3438 12.5352 10.2969C12.3737 10.2604 12.0573 10.2422 11.5859 10.2422H11.0664ZM15.7031 15V9.27344H19.6289V10.2422H16.8594V11.5977H19.25V12.5664H16.8594V15H15.7031Z" fill="#282828"/>
</svg>
