<svg width="19" height="19" viewBox="0 0 19 19" fill="none" xmlns="http://www.w3.org/2000/svg">
<path d="M17.3326 12.8087C16.7918 14.0878 15.9458 15.2149 14.8687 16.0915C13.7915 16.9682 12.5161 17.5676 11.1538 17.8374C9.79148 18.1072 8.38382 18.0392 7.05388 17.6393C5.72393 17.2394 4.51219 16.5198 3.5246 15.5435C2.537 14.5671 1.80362 13.3636 1.38857 12.0383C0.973524 10.713 0.889444 9.30626 1.14368 7.94097C1.39792 6.57568 1.98274 5.29345 2.84701 4.20639C3.71128 3.11932 4.82868 2.26053 6.10153 1.70508" stroke="#282828" stroke-width="1.5" stroke-linecap="round" stroke-linejoin="round"/>
<path d="M18.0042 9.50198C18.0042 8.38548 17.7843 7.27992 17.3571 6.24841C16.9298 5.2169 16.3035 4.27965 15.5141 3.49017C14.7246 2.70069 13.7873 2.07444 12.7558 1.64717C11.7243 1.21991 10.6188 1 9.50226 1V9.50198H18.0042Z" stroke="#282828" stroke-width="1.5" stroke-linecap="round" stroke-linejoin="round"/>
</svg>
