<svg width="9px" height="8px" viewBox="0 0 9 8" fill="none">
  <path d="M2.2894 3.82703C1.91768 3.41856 1.28522 3.38877 0.876751 3.76049C0.468285 4.13221 0.438494 4.76467 0.810211 5.17314L2.2894 3.82703ZM8.31977 1.51868C8.60623 1.04649 8.45567 0.431491 7.98348 0.145032C7.5113 -0.141428 6.8963 0.00913358 6.60984 0.481319L8.31977 1.51868ZM0.810211 5.17314L2.18465 6.68346L3.66384 5.33736L2.2894 3.82703L0.810211 5.17314ZM5.37378 6.37472L8.31977 1.51868L6.60984 0.481319L3.66384 5.33736L5.37378 6.37472ZM2.18465 6.68346C3.08395 7.67166 4.68075 7.51707 5.37378 6.37472L3.66384 5.33736H3.66384L2.18465 6.68346Z" fill="#282828"/>
</svg>
