<svg width="9" height="9" viewBox="0 0 9 9" fill="none" xmlns="http://www.w3.org/2000/svg">
  <path fill="currentColor" d="M7.62944 3.35308C7.75958 3.2229 7.86281 3.06836 7.93324 2.89829C8.00366 2.72821 8.0399 2.54593 8.03988 2.36184C8.03986 2.17776 8.00359 1.99548 7.93314 1.82542C7.86268 1.65536 7.75943 1.50084 7.62926 1.37068C7.49909 1.24053 7.34457 1.13729 7.17451 1.06686C7.00444 0.996427 6.82218 0.960186 6.63811 0.960203C6.45404 0.96022 6.27178 0.996494 6.10173 1.06696C5.93169 1.13742 5.77718 1.24068 5.64704 1.37086L4.19982 2.81807C3.93734 3.0811 3.78993 3.43753 3.78993 3.80913C3.78993 4.18073 3.93734 4.53716 4.19982 4.80019C4.28985 4.89023 4.34042 5.01234 4.34042 5.13967C4.34043 5.267 4.28985 5.38912 4.19982 5.47916C4.10979 5.56919 3.98769 5.61978 3.86037 5.61978C3.73305 5.61978 3.61094 5.5692 3.52091 5.47916C3.07864 5.03592 2.83026 4.43531 2.83026 3.80913C2.83026 3.18295 3.07864 2.58234 3.52091 2.1391L4.96813 0.691891C5.41103 0.248913 6.01174 3.22586e-05 6.63812 3.13142e-09C6.94827 -1.59681e-05 7.25538 0.0610624 7.54193 0.179748C7.82848 0.298433 8.08885 0.472401 8.30817 0.69172C8.52749 0.911038 8.70147 1.17141 8.82018 1.45797C8.93888 1.74453 8.99998 2.05167 9 2.36185C9.00002 2.67203 8.93894 2.97917 8.82027 3.26575C8.70159 3.55232 8.52764 3.81271 8.30834 4.03205L7.5915 4.74882C7.50144 4.83873 7.37937 4.88921 7.25212 4.88916C7.12487 4.8891 7.00285 4.83852 6.91287 4.74854C6.82289 4.65855 6.77232 4.53651 6.77226 4.40925C6.77221 4.28199 6.82269 4.15991 6.91259 4.06985L7.62944 3.35308ZM0.690641 8.30941C1.13397 8.75166 1.73459 9.00002 2.36076 9C2.98694 8.99998 3.58755 8.75159 4.03085 8.30931L5.47802 6.8622C5.69734 6.64291 5.87132 6.38255 5.99002 6.09601C6.10872 5.80946 6.16981 5.50233 6.16981 5.19217C6.16981 4.88201 6.10872 4.57488 5.99002 4.28834C5.87132 4.00179 5.69734 3.74143 5.47802 3.52214C5.38796 3.43223 5.2659 3.38175 5.13865 3.3818C5.0114 3.38186 4.88937 3.43243 4.79939 3.52242C4.70941 3.61241 4.65884 3.73445 4.65879 3.86171C4.65874 3.98897 4.70921 4.11105 4.79912 4.20111C4.92928 4.33126 5.03253 4.48577 5.10297 4.65582C5.17342 4.82588 5.20967 5.00815 5.20967 5.19222C5.20967 5.37629 5.17342 5.55856 5.10297 5.72862C5.03253 5.89867 4.92928 6.05319 4.79912 6.18333L3.35195 7.63044C3.2218 7.76061 3.0673 7.86388 2.89725 7.93434C2.7272 8.0048 2.54494 8.04108 2.36087 8.04109C2.17681 8.04111 1.99454 8.00487 1.82448 7.93444C1.65442 7.86401 1.49989 7.76077 1.36972 7.63062C1.10684 7.36776 0.959136 7.01123 0.959102 6.63946C0.959085 6.45537 0.995323 6.27309 1.06575 6.10301C1.13617 5.93294 1.2394 5.7784 1.36954 5.64822L2.08634 4.93145C2.17625 4.84139 2.22672 4.71931 2.22667 4.59205C2.22662 4.46479 2.17604 4.34275 2.08607 4.25277C1.99609 4.16278 1.87406 4.1122 1.74681 4.11214C1.61956 4.11209 1.49749 4.16257 1.40744 4.25248L0.690641 4.96925C0.248379 5.41252 0 6.01314 0 6.63933C0 7.26552 0.248379 7.86614 0.690641 8.30941Z"/>
</svg>
