<svg width="17" height="17" viewBox="0 0 17 17" fill="none" xmlns="http://www.w3.org/2000/svg">
<g clip-path="url(#clip0)">
<path d="M16.5028 8.002C16.2278 8.002 16.0048 8.22499 16.0048 8.50004C16.0048 12.6377 12.6385 16.0039 8.50093 16.0039C4.36328 16.0039 0.997067 12.6377 0.997067 8.50004C0.997067 4.36239 4.36328 0.99618 8.50093 0.99618C9.76261 0.99618 10.9899 1.30945 12.0855 1.90637L11.4628 2.52903C11.3204 2.67147 11.2778 2.88566 11.3549 3.07179C11.432 3.2579 11.6135 3.37925 11.815 3.37925H14.1981C14.4731 3.37925 14.6961 3.15626 14.6961 2.88121V0.498136C14.6961 0.296694 14.5748 0.115107 14.3886 0.0380099C14.2025 -0.0391205 13.9883 0.0035121 13.8459 0.145986L12.816 1.17584C11.5115 0.405633 10.0283 0.000125395 8.5009 0.000125395C6.23048 0.000125395 4.09593 0.884286 2.4905 2.48968C0.885074 4.09514 0.000946045 6.22966 0.000946045 8.50008C0.000946045 10.7705 0.885074 12.905 2.4905 14.5104C4.09596 16.1159 6.23048 17.0001 8.5009 17.0001C10.7713 17.0001 12.9058 16.1159 14.5113 14.5104C16.1167 12.905 17.0008 10.7705 17.0008 8.50008C17.0009 8.22499 16.7779 8.002 16.5028 8.002Z" fill="#939393"/>
<path d="M11.7006 8.00203H8.99792V5.29931C8.99792 5.02426 8.77493 4.80127 8.49988 4.80127C8.22482 4.80127 8.00183 5.02426 8.00183 5.29931V8.50008C8.00183 8.77513 8.22482 8.99812 8.49988 8.99812H11.7006C11.9757 8.99812 12.1987 8.77513 12.1987 8.50008C12.1987 8.22502 11.9757 8.00203 11.7006 8.00203Z" fill="#939393"/>
</g>
<defs>
<clipPath id="clip0">
<rect width="17" height="17" fill="white"/>
</clipPath>
</defs>
</svg>
