<svg width="23" height="23" viewBox="0 0 23 23" fill="none" xmlns="http://www.w3.org/2000/svg">
<path d="M4 4H19" stroke="#282828" stroke-opacity="0.5" stroke-width="1.25"/>
<path d="M10 2H13" stroke="#282828" stroke-opacity="0.5" stroke-width="1.25"/>
<path fill-rule="evenodd" clip-rule="evenodd" d="M5.26106 6H4L4.16667 7.25L5.76858 19.2643C5.90106 20.2579 6.74863 21 7.75103 21H15.249C16.2514 21 17.0989 20.2579 17.2314 19.2643L18.8333 7.25L19 6H17.7389H5.26106ZM5.42773 7.25L7.00761 19.0991C7.05729 19.4717 7.37513 19.75 7.75103 19.75H15.249C15.6249 19.75 15.9427 19.4717 15.9924 19.0991L17.5723 7.25H15.1031L14.1219 17.0622L12.8781 16.9378L13.8469 7.25H9.15312L10.1219 16.9378L8.8781 17.0622L7.89688 7.25H5.42773Z" fill="#282828" fill-opacity="0.5"/>
</svg>
