<svg width="13px" height="15px" viewBox="0 0 13 15" version="1.1" xmlns="http://www.w3.org/2000/svg" xmlns:xlink="http://www.w3.org/1999/xlink">
  <g id="Analitics-new" stroke="none" stroke-width="1" fill="none" fill-rule="evenodd">
    <g id="n_segm_07-copy-25" transform="translate(-422.000000, -457.000000)">
      <g id="документы" transform="translate(422.000000, 452.000000)">
        <g id="icon-/-doc-/-doc" transform="translate(0.000000, 5.000000)">
          <g>
            <path d="M2,-9.09494702e-13 L6.97485352,-9.09494702e-13 L6.97485352,-9.09494702e-13 L13,5.31899845 L13,13 C13,14.1045695 12.1045695,15 11,15 L2,15 C0.8954305,15 1.3527075e-16,14.1045695 0,13 L0,2 C-1.3527075e-16,0.8954305 0.8954305,-9.09291796e-13 2,-9.09494702e-13 Z" id="Rectangle-2" fill="#4889F7"></path>
            <text id="DOC" font-family="OfficinaSerifC-Book, ITC Officina Serif" font-size="5" font-weight="300" letter-spacing="0.625" fill="#FFFFFF">
              <tspan x="1.535" y="13.7058824">DOC</tspan>
            </text>
            <path d="M6.99986253,0.00533160041 L11.9994963,0.00533160041 C12.3431521,0.0138281018 12.5968142,0.0876447379 12.7604826,0.226781509 C12.9241511,0.365918279 13.0040257,0.575645847 13.0001067,0.855964212 L13.0001067,5.29944925 L6.99986253,0.00533160041 Z" id="Path-2" fill-opacity="0.4" fill="#FFFFFF" transform="translate(10.000053, 2.652390) scale(-1, -1) translate(-10.000053, -2.652390) "></path>
          </g>
        </g>
      </g>
    </g>
  </g>
</svg>
