<svg width="17" height="17" viewBox="0 0 19 19" fill="none" xmlns="http://www.w3.org/2000/svg">
<path d="M8.60386 2.79224H2.68975C2.2416 2.79224 1.8118 2.97026 1.49492 3.28715C1.17803 3.60404 1 4.03384 1 4.48199V16.3102C1 16.7584 1.17803 17.1882 1.49492 17.5051C1.8118 17.822 2.2416 18 2.68975 18H14.518C14.9661 18 15.3959 17.822 15.7128 17.5051C16.0297 17.1882 16.2077 16.7584 16.2077 16.3102V10.3961" stroke="currentColor" stroke-width="1.5" stroke-linecap="round" stroke-linejoin="round"/>
<path d="M14.9405 1.52494C15.2766 1.18883 15.7325 1 16.2078 1C16.6832 1 17.139 1.18883 17.4752 1.52494C17.8113 1.86105 18.0001 2.31692 18.0001 2.79225C18.0001 3.26759 17.8113 3.72346 17.4752 4.05957L9.44884 12.0859L6.06934 12.9308L6.91421 9.55127L14.9405 1.52494Z" stroke="currentColor" stroke-width="1.5" stroke-linecap="round" stroke-linejoin="round"/>
</svg>
