<svg width="16" height="16" viewBox="0 0 16 16" fill="none" xmlns="http://www.w3.org/2000/svg">
  <path d="M14.606 10.223a.391.391 0 00-.394.388v3.448c-.001.643-.53 1.164-1.183 1.164H1.971A1.175 1.175 0 01.788 14.06V3.94c.001-.643.53-1.164 1.183-1.164H5.47a.391.391 0 00.394-.389A.391.391 0 005.47 2h-3.5C.884 2.001.002 2.87 0 3.941V14.06C.001 15.13.883 15.999 1.97 16h11.06c1.087-.001 1.969-.87 1.97-1.941V10.61a.391.391 0 00-.394-.388z" fill="currentColor"/>
  <path fill-rule="evenodd" clip-rule="evenodd" d="M12.378.54a1.841 1.841 0 012.604 0l.48.48c.718.719.718 1.883 0 2.602L8.163 10.92a.408.408 0 01-.18.105l-3.465.96a.41.41 0 01-.503-.503l.96-3.465a.409.409 0 01.105-.18L12.378.539zm-.434 1.59L5.971 8.103l1.926 1.926 5.974-5.973-1.927-1.926zM5.586 8.875l1.54 1.539-2.13.59.59-2.13zm8.863-5.397l.434-.434c.399-.4.399-1.047 0-1.446l-.48-.48c-.4-.4-1.047-.4-1.446 0l-.434.433 1.926 1.927z" fill="currentColor"/>
</svg>
