<svg version="1.1" xmlns="http://www.w3.org/2000/svg" x="0" y="0" width="22" height="20" viewBox="0, 0, 22, 20">
  <g>
    <path d="M10.153,17.967 C10.166,18.409 9.972,18.83 9.632,19.096 C9.293,19.362 8.851,19.44 8.446,19.305 L2.346,17.784 C1.385,17.547 0.686,16.684 0.622,15.659 L0.622,2.385 C0.688,1.395 1.489,0.632 2.443,0.65 L15.473,0.65 C16.406,0.64 17.172,1.415 17.19,2.385 L17.19,5.942 M13.818,9.583 L22,9.583 M16.311,6.982 L13.821,9.583 L16.311,11.926 M7.889,10.19 L7.889,11.926 M0.625,2.376 C0.587,1.948 0.758,1.529 1.08,1.26 C1.401,0.991 1.832,0.908 2.225,1.038 L8.803,2.559 C9.205,2.601 9.575,2.81 9.828,3.138 C10.081,3.466 10.197,3.887 10.149,4.305 L10.149,18.193 M17.189,12.879 L17.189,15.656 C17.171,16.626 16.405,17.401 15.472,17.391 L10.734,17.391" fill-opacity="0" stroke="currentColor" stroke-width="1.25" stroke-miterlimit="10"/>
  </g>
</svg>
