<svg width="21" height="15" viewBox="0 0 21 15" fill="none" xmlns="http://www.w3.org/2000/svg">
<path d="M21 4.15181C20.9995 3.83299 20.9057 3.50967 20.6984 3.24315L19.0345 1.11411C18.7558 0.760225 18.3317 0.580043 17.908 0.579346C17.6558 0.579346 17.399 0.643986 17.1721 0.78549L15.5496 1.79488C15.379 1.9037 15.0865 1.97839 14.8039 1.97646C14.5844 1.9774 14.3723 1.93348 14.2322 1.86428L12.6434 1.09471C12.3872 0.971332 12.1015 0.92076 11.8142 0.920268C11.4016 0.922195 10.9838 1.02359 10.6481 1.25627L10.4627 1.38633C10.3145 1.31238 10.088 1.19971 9.83153 1.07207C9.52391 0.921252 9.1622 0.860426 8.79683 0.859237C8.46677 0.86018 8.1368 0.911039 7.84707 1.03343L6.76491 1.49518C6.58879 1.57155 6.30866 1.62143 6.03041 1.6202C5.75216 1.62139 5.47251 1.57151 5.29639 1.49518L4.21325 1.03318C4.01568 0.948938 3.80449 0.912926 3.59518 0.91268C3.35418 0.912926 3.1146 0.960422 2.89193 1.05062C2.66954 1.1413 2.46311 1.27518 2.29872 1.45888L0.326691 3.66741C0.108119 3.9115 -0.000449772 4.21887 1.40036e-06 4.52144C-0.000449772 4.88225 0.153933 5.24422 0.451706 5.4979L2.29126 7.06732L1.41861 7.97766C1.17805 8.22872 1.05829 8.55422 1.05829 8.87607C1.05784 9.21851 1.19384 9.56427 1.46323 9.81885L1.64026 9.98706C1.80707 10.1453 2.00751 10.2459 2.21726 10.2996C2.11206 10.4932 2.05456 10.7053 2.05501 10.9179C2.05456 11.2606 2.19056 11.6061 2.45946 11.861L2.45901 11.8607L2.63657 12.0297C2.88931 12.2693 3.21694 12.3886 3.53973 12.3884C3.71323 12.3886 3.88693 12.3537 4.05017 12.2855C4.10747 12.5179 4.2258 12.7389 4.41193 12.9155L4.58949 13.0844C4.84222 13.324 5.16932 13.4433 5.49265 13.4431C5.74539 13.4433 5.99927 13.3688 6.21785 13.2243C6.28179 13.43 6.39134 13.6249 6.55811 13.7833L6.73567 13.9523C6.98787 14.1919 7.31551 14.3112 7.63838 14.311C7.98222 14.3112 8.32945 14.1761 8.58593 13.9084L9.35718 13.103L10.405 14.0728C10.6558 14.3054 10.9778 14.4212 11.2955 14.4205C11.6447 14.4212 11.9969 14.2814 12.2539 14.0062L12.4211 13.827C12.5655 13.6719 12.6598 13.4884 12.7144 13.2968L13.1203 13.6715C13.3716 13.9031 13.6931 14.0184 14.0104 14.0182C14.36 14.0184 14.7132 13.8785 14.9704 13.6032L15.1367 13.4242C15.3288 13.219 15.4369 12.9648 15.4703 12.7052C15.5774 12.7327 15.686 12.7513 15.7955 12.7513C16.1451 12.7513 16.4973 12.6117 16.7548 12.3366L16.9216 12.1576C17.1547 11.9077 17.2707 11.5873 17.2702 11.2713C17.2702 11.1733 17.2562 11.0757 17.2344 10.9793C17.5244 10.9408 17.8055 10.8115 18.0193 10.582L18.1865 10.4028C18.4197 10.1529 18.5352 9.83243 18.5352 9.51624C18.5356 9.16835 18.3953 8.81729 18.1185 8.56152L17.8057 8.27257L20.6291 5.15087C20.8826 4.86983 20.9996 4.50807 21 4.15181ZM2.54354 9.63539C2.39396 9.63494 2.24766 9.58146 2.13335 9.47313L1.95604 9.30493C1.83336 9.18894 1.77278 9.03459 1.77229 8.87611C1.77278 8.72747 1.82598 8.58236 1.93553 8.46805L3.72283 6.60294C3.83927 6.48145 3.99464 6.42063 4.15402 6.42042C4.30316 6.42067 4.44897 6.47436 4.56422 6.58293L4.74079 6.75138C4.74079 6.75138 4.9236 7.02171 4.92405 7.1804C4.9236 7.29922 4.88779 7.41497 4.81835 7.51521C4.81241 7.52116 2.88931 9.52539 2.88931 9.52539C2.78718 9.59766 2.66643 9.63486 2.54354 9.63539ZM3.97097 11.4957C3.85477 11.6167 3.69965 11.6773 3.54027 11.6778C3.39068 11.6776 3.24483 11.6239 3.13007 11.5155L2.95251 11.3468L2.95206 11.3466C2.83037 11.2311 2.76925 11.0762 2.76925 10.9177C2.76925 10.7691 2.82294 10.624 2.93196 10.5097C2.93196 10.5097 5.3144 8.02967 5.33445 8.00576C5.44831 7.89625 5.59502 7.83969 5.74654 7.83944C5.89612 7.83969 6.04197 7.89313 6.15673 8.0017L6.33429 8.17064C6.45644 8.28614 6.5171 8.44077 6.51755 8.59946C6.51706 8.7481 6.46341 8.89342 6.35431 9.00773L3.97097 11.4957ZM5.9236 12.5502C5.80765 12.6714 5.65257 12.7321 5.49314 12.7326C5.34356 12.7323 5.19771 12.6786 5.08294 12.5701L4.9049 12.4013C4.78275 12.2856 4.72164 12.131 4.72164 11.9725C4.72164 11.8399 4.76676 11.7112 4.85309 11.6041L6.51226 9.87234C6.62419 9.7714 6.76446 9.7182 6.90982 9.7182C7.05941 9.71845 7.20526 9.77189 7.32002 9.88046L7.49807 10.0494C7.61976 10.1649 7.68087 10.3195 7.68133 10.478C7.68083 10.6269 7.62669 10.7722 7.51808 10.8862L5.9236 12.5502ZM9.07614 12.3674L8.06937 13.4181C7.95338 13.5393 7.79806 13.6 7.63867 13.6005C7.48909 13.6002 7.34323 13.5465 7.22847 13.4379L7.05092 13.2692C6.92922 13.1537 6.86811 12.9989 6.86766 12.8404C6.86811 12.6915 6.9218 12.5461 7.0309 12.4323L8.03722 11.3816C8.15366 11.2604 8.30903 11.1996 8.46842 11.1993C8.61755 11.1996 8.76385 11.253 8.87861 11.3618L9.05666 11.5306C9.17835 11.6461 9.23898 11.8007 9.23947 11.9591C9.23889 12.108 9.1852 12.2533 9.07614 12.3674ZM17.8222 9.51718C17.822 9.66312 17.7697 9.80606 17.6638 9.91963L17.497 10.0986C17.3805 10.2232 17.2225 10.2862 17.0608 10.2864C16.914 10.2862 16.7703 10.2346 16.6563 10.1292L13.8453 7.52961L13.3592 8.05006L16.3681 10.8374C16.4934 10.9534 16.5563 11.1109 16.5573 11.2718C16.5563 11.4183 16.5045 11.561 16.3988 11.6746L16.2325 11.8536C16.1161 11.9781 15.9581 12.0409 15.7963 12.0414C15.6496 12.0409 15.5054 11.9891 15.3923 11.8844L12.5806 9.28479L12.095 9.80524L14.5903 12.1128C14.7105 12.228 14.7721 12.3815 14.7721 12.5389C14.7721 12.685 14.7203 12.8279 14.6146 12.9413L14.4478 13.1202C14.3318 13.2448 14.1734 13.3078 14.0112 13.3083C13.8639 13.3078 13.7203 13.256 13.6067 13.1513L11.1164 10.8521H11.116L11.1155 10.8516L10.6309 11.373L10.6314 11.3735L10.6407 11.3823L11.888 12.5334C11.9985 12.647 12.0557 12.7926 12.0562 12.9431C12.0557 13.0885 12.0044 13.2307 11.8987 13.3441L11.7319 13.5233C11.6154 13.6478 11.4579 13.7103 11.2966 13.7108C11.1499 13.7104 11.0062 13.6588 10.8926 13.5536L9.80663 12.548C9.90113 12.3626 9.95388 12.1615 9.95388 11.9596C9.95433 11.6171 9.81832 11.2719 9.54942 11.0168L9.37137 10.8479C9.11917 10.6085 8.79199 10.489 8.46915 10.4894C8.44409 10.4894 8.41883 10.4952 8.39426 10.4966C8.39426 10.4906 8.39565 10.4844 8.39565 10.4785C8.3961 10.136 7.9912 9.53519 7.9912 9.53519L7.81364 9.36674C7.62489 9.18775 7.39459 9.0761 7.15505 9.03123C7.20444 8.89141 7.23237 8.74584 7.23237 8.60003C7.23237 8.25759 7.09681 7.91204 6.82791 7.65725L6.65036 7.4883C6.39762 7.24873 6.07052 7.12917 5.74764 7.12942C5.70995 7.12942 5.67275 7.13705 5.63526 7.14041C5.62501 6.81159 5.49257 6.48301 5.23487 6.23819V6.23794L5.0578 6.06974C4.80506 5.82992 4.47796 5.71036 4.15509 5.71061C3.81072 5.71036 3.46402 5.84542 3.20755 6.11317L2.78566 6.55344L0.916742 4.9594C0.782415 4.8444 0.715355 4.68546 0.714863 4.52226C0.715314 4.38551 0.761867 4.25164 0.861125 4.14049L2.83311 1.932C2.91137 1.84419 3.02712 1.76474 3.16268 1.70957C3.29823 1.65445 3.45212 1.62418 3.59601 1.62438C3.72131 1.62438 3.8389 1.64706 3.93295 1.68763L5.0156 2.14959C5.32079 2.27821 5.67513 2.33096 6.03123 2.33211C6.38773 2.33092 6.74162 2.27817 7.04685 2.14959L8.12901 1.68783C8.29582 1.61507 8.54753 1.56996 8.79785 1.5709C9.07467 1.56922 9.35193 1.62652 9.51275 1.70859C9.61488 1.75941 9.71176 1.80764 9.80171 1.85272L8.69806 2.62853C8.34344 2.8779 8.15231 3.27448 8.1528 3.67467C8.15235 3.93955 8.23631 4.20919 8.40718 4.43801L8.40673 4.43752L8.5525 4.63341C8.82931 5.0014 9.26096 5.19061 9.6924 5.19155C9.93604 5.19155 10.1842 5.12999 10.4054 4.9973L11.0654 4.60093C11.2001 4.51861 11.4033 4.4666 11.6135 4.46754C11.8605 4.46611 12.1094 4.53916 12.259 4.64912L14.085 5.95822C14.4914 6.24935 15.1533 6.78936 15.5201 7.12917L17.6336 9.08328C17.7587 9.19931 17.8217 9.35612 17.8222 9.51718ZM20.0992 4.67582L17.2837 7.78916L16.0053 6.60749C15.6049 6.23786 14.9447 5.69883 14.5018 5.38072L12.6763 4.07162C12.3668 3.85235 11.9878 3.75756 11.6132 3.75617C11.2944 3.75711 10.9732 3.82659 10.6959 3.99168L10.0364 4.38806C9.93522 4.44888 9.81594 4.47993 9.69203 4.48018C9.47055 4.48092 9.2489 4.37756 9.12532 4.20931L8.98 4.01367L8.97951 4.01317C8.9022 3.90891 8.86619 3.79198 8.86565 3.67361C8.8666 3.49461 8.94916 3.32091 9.10908 3.20804L11.0606 1.83688C11.2293 1.71474 11.5295 1.62906 11.8146 1.63119C12.0127 1.63025 12.2019 1.67007 12.3315 1.73406L13.9202 2.50364C14.1911 2.6337 14.4968 2.68689 14.8043 2.68763C15.1994 2.6857 15.5989 2.59982 15.928 2.39769L17.5509 1.38809C17.6545 1.32345 17.7788 1.29002 17.9084 1.29002C18.1275 1.28957 18.347 1.38883 18.4713 1.55084L20.1352 3.67988C20.2312 3.80182 20.2867 3.97384 20.2867 4.15214C20.287 4.35151 20.2166 4.54769 20.0992 4.67582Z" fill="#939393" fill-opacity="0.4"/>
</svg>
