<svg width="30" height="20" viewBox="0 0 30 20" fill="none" xmlns="http://www.w3.org/2000/svg">
<path d="M30 5.21704C29.9993 4.76159 29.8654 4.2997 29.5692 3.91896L27.1921 0.877471C26.794 0.371924 26.1882 0.114521 25.5828 0.113525C25.2225 0.113525 24.8556 0.205869 24.5315 0.408018L22.2138 1.85001C21.97 2.00546 21.5521 2.11216 21.1485 2.1094C20.8349 2.11075 20.5318 2.048 20.3317 1.94915L18.0621 0.849756C17.696 0.673506 17.2879 0.60126 16.8775 0.600557C16.2881 0.603311 15.6912 0.748155 15.2115 1.08056L14.9467 1.26636C14.735 1.16071 14.4115 0.999756 14.045 0.817412C13.6056 0.601963 13.0889 0.515069 12.5669 0.513369C12.0954 0.514717 11.624 0.587373 11.2101 0.762217L9.66416 1.42187C9.41256 1.53097 9.01236 1.60222 8.61486 1.60046C8.21736 1.60216 7.81787 1.53091 7.56627 1.42187L6.01893 0.761865C5.73668 0.641514 5.43498 0.590069 5.13598 0.589717C4.79168 0.590069 4.44944 0.65792 4.13133 0.786768C3.81363 0.916319 3.51873 1.10757 3.28389 1.37001L0.466701 4.52505C0.154455 4.87374 -0.000642531 5.31284 2.00051e-06 5.74509C-0.000642531 6.26054 0.219904 6.77763 0.645295 7.14003L3.27322 9.38206L2.02658 10.6825C1.68293 11.0412 1.51184 11.5062 1.51184 11.966C1.51119 12.4552 1.70549 12.9491 2.09033 13.3128L2.34322 13.5531C2.58153 13.7792 2.86787 13.923 3.16752 13.9997C3.01723 14.2761 2.93508 14.5792 2.93572 14.8829C2.93508 15.3725 3.12938 15.866 3.51352 16.2301L3.51287 16.2298L3.76653 16.4711C4.12758 16.8134 4.59563 16.9838 5.05676 16.9835C5.30461 16.9839 5.55276 16.9341 5.78596 16.8366C5.86781 17.1686 6.03686 17.4843 6.30276 17.7365L6.55641 17.9779C6.91746 18.3201 7.38475 18.4906 7.84664 18.4903C8.2077 18.4906 8.57039 18.3842 8.88264 18.1777C8.97399 18.4715 9.13049 18.75 9.36873 18.9764L9.62239 19.2177C9.98268 19.56 10.4507 19.7304 10.912 19.7301C11.4032 19.7305 11.8992 19.5375 12.2656 19.155L13.3674 18.0045L14.8643 19.3899C15.2226 19.7222 15.6825 19.8876 16.1365 19.8866C16.6352 19.8876 17.1384 19.6878 17.5055 19.2948L17.7445 19.0388C17.9507 18.8172 18.0854 18.555 18.1635 18.2813L18.7433 18.8165C19.1023 19.1475 19.5615 19.3122 20.0149 19.3118C20.5143 19.3122 21.0188 19.1124 21.3863 18.719L21.6239 18.4633C21.8983 18.1702 22.0528 17.8071 22.1005 17.4362C22.2535 17.4754 22.4086 17.502 22.565 17.502C23.0644 17.502 23.5676 17.3026 23.9354 16.9096L24.1737 16.6539C24.5068 16.2969 24.6725 15.8391 24.6718 15.3878C24.6718 15.2477 24.6517 15.1083 24.6206 14.9706C25.0348 14.9157 25.4364 14.7309 25.7418 14.403L25.9808 14.147C26.3138 13.79 26.4788 13.3322 26.4788 12.8805C26.4795 12.3835 26.2791 11.882 25.8836 11.5166L25.4367 11.1038L29.4702 6.64427C29.8323 6.24278 29.9994 5.72599 30 5.21704ZM3.63363 13.0507C3.41994 13.0501 3.21094 12.9737 3.04764 12.8189L2.79434 12.5786C2.61908 12.4129 2.53254 12.1925 2.53184 11.966C2.53254 11.7537 2.60854 11.5464 2.76504 11.3831L5.31832 8.71866C5.48467 8.54511 5.70662 8.45821 5.93432 8.45792C6.14737 8.45827 6.35567 8.53497 6.52031 8.69007L6.77256 8.93071C6.77256 8.93071 7.03371 9.3169 7.03436 9.5436C7.03371 9.71335 6.98256 9.8787 6.88336 10.0219C6.87487 10.0304 4.12758 12.8936 4.12758 12.8936C3.98168 12.9968 3.80918 13.05 3.63363 13.0507ZM5.67281 15.7084C5.50682 15.8812 5.28522 15.9678 5.05752 15.9685C4.84383 15.9681 4.63547 15.8914 4.47153 15.7367L4.21787 15.4956L4.21723 15.4953C4.04338 15.3303 3.95608 15.1091 3.95608 14.8827C3.95608 14.6703 4.03278 14.463 4.18852 14.2997C4.18852 14.2997 7.59199 10.7568 7.62065 10.7227C7.7833 10.5662 7.99289 10.4854 8.20934 10.4851C8.42303 10.4854 8.63139 10.5618 8.79533 10.7169L9.04899 10.9582C9.22348 11.1232 9.31014 11.3441 9.31078 11.5708C9.31008 11.7832 9.23344 11.9908 9.07758 12.1541L5.67281 15.7084ZM8.46229 17.2147C8.29664 17.388 8.0751 17.4746 7.84735 17.4753C7.63365 17.4749 7.42529 17.3982 7.26135 17.2431L7.00699 17.0021C6.8325 16.8367 6.7452 16.6159 6.7452 16.3895C6.7452 16.2 6.80965 16.0162 6.93299 15.8631L9.30322 13.3892C9.46313 13.245 9.66352 13.169 9.87117 13.169C10.0849 13.1694 10.2932 13.2457 10.4572 13.4008L10.7115 13.6422C10.8854 13.8072 10.9727 14.0281 10.9733 14.2544C10.9726 14.4672 10.8953 14.6748 10.7401 14.8377L8.46229 17.2147ZM12.9659 16.9536L11.5277 18.4547C11.362 18.6278 11.1401 18.7145 10.9124 18.7151C10.6987 18.7148 10.4903 18.6381 10.3264 18.483L10.0727 18.2419C9.89889 18.0769 9.81158 17.8557 9.81094 17.6293C9.81158 17.4166 9.88828 17.209 10.0441 17.0464L11.4817 15.5454C11.6481 15.3722 11.87 15.2853 12.0977 15.2849C12.3108 15.2853 12.5198 15.3616 12.6837 15.5171L12.9381 15.7581C13.1119 15.9231 13.1985 16.144 13.1992 16.3704C13.1984 16.5831 13.1217 16.7907 12.9659 16.9536ZM25.4603 12.8819C25.46 13.0903 25.3853 13.2945 25.234 13.4568L24.9957 13.7125C24.8293 13.8904 24.6036 13.9804 24.3725 13.9808C24.1629 13.9804 23.9576 13.9068 23.7947 13.7562L19.779 10.0425L19.0846 10.786L23.383 14.7679C23.562 14.9336 23.6519 15.1586 23.6532 15.3884C23.6519 15.5977 23.5779 15.8015 23.4269 15.9638L23.1893 16.2195C23.023 16.3975 22.7972 16.4871 22.5662 16.4878C22.3565 16.4872 22.1506 16.4132 21.989 16.2635L17.9722 12.5499L17.2785 13.2934L20.8433 16.5899C21.0151 16.7545 21.1031 16.9737 21.1031 17.1986C21.1031 17.4073 21.0291 17.6114 20.8781 17.7734L20.6398 18.0291C20.4741 18.207 20.2477 18.297 20.016 18.2977C19.8056 18.297 19.6004 18.223 19.4382 18.0734L15.8806 14.7889H15.88L15.8793 14.7882L15.187 15.5331L15.1877 15.5337L15.201 15.5463L16.9828 17.1908C17.1407 17.353 17.2225 17.561 17.2231 17.7761C17.2225 17.9837 17.1491 18.1868 16.9981 18.3488L16.7598 18.6048C16.5935 18.7828 16.3685 18.8721 16.138 18.8728C15.9284 18.8721 15.7231 18.7985 15.5609 18.6482L14.0095 17.2117C14.1445 16.9468 14.2198 16.6594 14.2198 16.371C14.2205 15.8818 14.0262 15.3886 13.642 15.0242L13.3877 14.7828C13.0274 14.4409 12.56 14.2701 12.0988 14.2708C12.063 14.2708 12.0269 14.279 11.9918 14.281C11.9918 14.2725 11.9938 14.2636 11.9938 14.2551C11.9944 13.7659 11.416 12.9076 11.416 12.9076L11.1623 12.6669C10.8927 12.4112 10.5637 12.2517 10.2215 12.1876C10.2921 11.9879 10.332 11.78 10.332 11.5716C10.332 11.0825 10.1383 10.5888 9.75416 10.2248L9.50051 9.98347C9.13945 9.64122 8.67217 9.47042 8.21092 9.47077C8.15707 9.47077 8.10393 9.48167 8.05037 9.48647C8.03572 9.01673 7.84653 8.54733 7.47838 8.19759V8.19724L7.22543 7.95694C6.86438 7.61434 6.39709 7.44354 5.93584 7.4439C5.44389 7.44354 4.9486 7.63649 4.58221 8.01899L3.97951 8.64794L1.30963 6.37075C1.11774 6.20645 1.02194 5.9794 1.02123 5.74626C1.02188 5.55091 1.08838 5.35966 1.23018 5.20087L4.04731 2.04589C4.1591 1.92044 4.32445 1.80694 4.51811 1.72813C4.71176 1.64938 4.9316 1.60614 5.13715 1.60644C5.31615 1.60644 5.48414 1.63884 5.6185 1.69679L7.16514 2.35673C7.60113 2.54048 8.10733 2.61583 8.61604 2.61747C9.12533 2.61577 9.63088 2.54042 10.0669 2.35673L11.6129 1.69708C11.8512 1.59313 12.2108 1.52868 12.5684 1.53003C12.9638 1.52763 13.3599 1.60948 13.5897 1.72673C13.7355 1.79933 13.8739 1.86823 14.0024 1.93263L12.4258 3.04093C11.9192 3.39718 11.6462 3.96372 11.6469 4.53542C11.6462 4.91382 11.7662 5.29901 12.0103 5.62591L12.0096 5.62521L12.2179 5.90505C12.6133 6.43075 13.2299 6.70104 13.8463 6.70239C14.1943 6.70239 14.5489 6.61444 14.8649 6.42489L15.8078 5.85864C16.0001 5.74104 16.2905 5.66675 16.5908 5.6681C16.9436 5.66604 17.2992 5.7704 17.5129 5.92749L20.1214 7.79763C20.702 8.21352 21.6476 8.98497 22.1716 9.47042L25.1909 12.262C25.3696 12.4278 25.4596 12.6518 25.4603 12.8819ZM28.7132 5.96563L24.6909 10.4133L22.8647 8.72517C22.2928 8.19712 21.3495 7.42708 20.7168 6.97263L18.109 5.10249C17.6668 4.78925 17.1255 4.65384 16.5903 4.65185C16.1348 4.65319 15.676 4.75245 15.2799 4.98829L14.3377 5.55454C14.1932 5.64144 14.0228 5.68579 13.8458 5.68614C13.5294 5.6872 13.2127 5.53954 13.0362 5.29919L12.8286 5.0197L12.8279 5.01899C12.7174 4.87005 12.666 4.703 12.6652 4.5339C12.6666 4.27819 12.7845 4.03005 13.013 3.8688L15.8008 1.91001C16.0419 1.73552 16.4707 1.61312 16.878 1.61616C17.161 1.61481 17.4313 1.67171 17.6164 1.76312L19.886 2.86251C20.273 3.04831 20.7097 3.12431 21.149 3.12536C21.7135 3.12261 22.2841 2.99991 22.7543 2.71116L25.0727 1.26888C25.2207 1.17653 25.3983 1.12878 25.5834 1.12878C25.8964 1.12813 26.21 1.26993 26.3876 1.50138L28.7646 4.54286C28.9017 4.71706 28.9811 4.9628 28.9811 5.21751C28.9815 5.50233 28.8809 5.78259 28.7132 5.96563Z" fill="#FFDC7D"/>
</svg>
