<svg width="46" height="32" viewBox="0 0 46 32" fill="none" xmlns="http://www.w3.org/2000/svg">
<path d="M45.826 8.72179C45.8249 8.02871 45.6211 7.32583 45.1704 6.74644L41.5532 2.11809C40.9473 1.34878 40.0254 0.957082 39.1042 0.955566C38.5559 0.955566 37.9976 1.09609 37.5044 1.40371L33.9774 3.59804C33.6065 3.8346 32.9706 3.99696 32.3563 3.99277C31.8791 3.99482 31.4179 3.89933 31.1134 3.74891L27.6596 2.07592C27.1025 1.80771 26.4814 1.69777 25.8569 1.6967C24.96 1.70089 24.0517 1.92131 23.3218 2.42714L22.9188 2.70988C22.5966 2.54911 22.1044 2.30418 21.5467 2.0267C20.878 1.69884 20.0916 1.56661 19.2974 1.56402C18.5799 1.56608 17.8625 1.67664 17.2327 1.94271L14.8802 2.94652C14.4973 3.11254 13.8883 3.22097 13.2834 3.21829C12.6785 3.22088 12.0706 3.11245 11.6877 2.94652L9.33307 1.94217C8.90356 1.75903 8.44445 1.68074 7.98945 1.68021C7.46552 1.68074 6.94471 1.78399 6.46064 1.98007C5.97719 2.17721 5.52842 2.46824 5.17105 2.86761L0.884026 7.66875C0.408869 8.19937 0.17285 8.86757 0.173831 9.52534C0.17285 10.3097 0.508465 11.0966 1.1558 11.6481L5.15482 15.0599L3.25776 17.0389C2.73481 17.5846 2.47445 18.2922 2.47445 18.9919C2.47347 19.7364 2.76914 20.488 3.35477 21.0415L3.7396 21.4071C4.10224 21.7511 4.53798 21.9699 4.99397 22.0866C4.76526 22.5073 4.64025 22.9686 4.64124 23.4307C4.64025 24.1757 4.93592 24.9268 5.52049 25.4809L5.5195 25.4803L5.9055 25.8476C6.45493 26.3684 7.16717 26.6278 7.8689 26.6273C8.24606 26.6279 8.62367 26.5521 8.97855 26.4037C9.10311 26.909 9.36035 27.3893 9.76498 27.7732L10.151 28.1405C10.7004 28.6613 11.4115 28.9206 12.1144 28.9202C12.6638 28.9207 13.2157 28.7588 13.6909 28.4445C13.8299 28.8917 14.0681 29.3155 14.4306 29.6599L14.8166 30.0272C15.3649 30.548 16.0771 30.8074 16.779 30.8069C17.5265 30.8075 18.2813 30.5138 18.8389 29.9318L20.5155 28.1809L22.7934 30.2891C23.3387 30.7949 24.0385 31.0465 24.7294 31.045C25.4883 31.0466 26.254 30.7425 26.8127 30.1444L27.1763 29.7549C27.4901 29.4177 27.695 29.0187 27.8139 28.6022L28.6963 29.4167C29.2425 29.9204 29.9414 30.1709 30.6312 30.1704C31.3912 30.1709 32.159 29.8669 32.7182 29.2683L33.0798 28.8792C33.4973 28.4331 33.7324 27.8805 33.805 27.3162C34.0378 27.3759 34.2739 27.4164 34.5119 27.4164C35.2719 27.4164 36.0375 27.1128 36.5973 26.5148L36.9599 26.1257C37.4668 25.5825 37.7189 24.8859 37.7178 24.199C37.7178 23.9858 37.6873 23.7737 37.64 23.5641C38.2703 23.4805 38.8814 23.1994 39.3462 22.7004L39.7098 22.3108C40.2166 21.7676 40.4677 21.071 40.4677 20.3836C40.4687 19.6273 40.1637 18.8641 39.5619 18.3081L38.8819 17.68L45.0198 10.8937C45.5708 10.2827 45.825 9.49627 45.826 8.72179ZM5.70327 20.6426C5.37809 20.6416 5.06004 20.5254 4.81154 20.2899L4.42608 19.9242C4.15939 19.6721 4.0277 19.3365 4.02663 18.992C4.0277 18.6689 4.14334 18.3534 4.3815 18.1049L8.26693 14.0503C8.52007 13.7862 8.85782 13.654 9.20431 13.6536C9.52851 13.6541 9.84549 13.7708 10.096 14.0068L10.4799 14.373C10.4799 14.373 10.8773 14.9607 10.8783 15.3057C10.8773 15.564 10.7995 15.8156 10.6485 16.0335C10.6356 16.0465 6.45493 20.4035 6.45493 20.4035C6.23291 20.5606 5.97041 20.6415 5.70327 20.6426ZM8.80637 24.6868C8.55377 24.9499 8.21655 25.0816 7.87006 25.0827C7.54487 25.0821 7.22781 24.9654 6.97832 24.7299L6.59233 24.3631L6.59135 24.3626C6.3268 24.1115 6.19394 23.7749 6.19394 23.4303C6.19394 23.1072 6.31066 22.7918 6.54766 22.5433C6.54766 22.5433 11.7269 17.1519 11.7705 17.0999C12.018 16.8619 12.3369 16.7389 12.6663 16.7384C12.9915 16.7389 13.3085 16.8551 13.558 17.0911L13.944 17.4584C14.2096 17.7095 14.3414 18.0456 14.3424 18.3906C14.3413 18.7137 14.2247 19.0296 13.9875 19.2781L8.80637 24.6868ZM13.0512 26.9791C12.7992 27.2427 12.462 27.3746 12.1154 27.3756C11.7903 27.3751 11.4732 27.2584 11.2237 27.0223L10.8366 26.6555C10.5711 26.4039 10.4383 26.0678 10.4383 25.7233C10.4383 25.4349 10.5363 25.1552 10.724 24.9223L14.3309 21.1577C14.5742 20.9383 14.8792 20.8226 15.1952 20.8226C15.5204 20.8232 15.8374 20.9394 16.0869 21.1754L16.474 21.5426C16.7385 21.7937 16.8714 22.1299 16.8724 22.4743C16.8713 22.7981 16.7536 23.114 16.5175 23.3619L13.0512 26.9791ZM19.9046 26.5818L17.7159 28.866C17.4638 29.1295 17.1261 29.2613 16.7796 29.2623C16.4544 29.2618 16.1374 29.1451 15.8879 28.9091L15.5019 28.5422C15.2374 28.2911 15.1045 27.9545 15.1035 27.61C15.1045 27.2863 15.2212 26.9704 15.4584 26.7229L17.646 24.4388C17.8992 24.1753 18.2369 24.043 18.5834 24.0425C18.9076 24.043 19.2257 24.1592 19.4752 24.3957L19.8622 24.7626C20.1268 25.0136 20.2586 25.3498 20.2596 25.6942C20.2584 26.0179 20.1417 26.3338 19.9046 26.5818ZM38.9178 20.3857C38.9174 20.7029 38.8037 21.0136 38.5734 21.2605L38.2107 21.6496C37.9576 21.9204 37.6141 22.0574 37.2625 22.0579C36.9435 22.0574 36.6311 21.9453 36.3832 21.7162L30.2723 16.0648L29.2157 17.1962L35.7566 23.2558C36.029 23.5079 36.1658 23.8503 36.1679 24.1999C36.1658 24.5184 36.0532 24.8286 35.8235 25.0756L35.4619 25.4647C35.2088 25.7355 34.8653 25.8719 34.5136 25.873C34.1946 25.872 33.8813 25.7594 33.6354 25.5317L27.5229 19.8804L26.4673 21.0119L31.8918 26.0282C32.1533 26.2788 32.2872 26.6124 32.2872 26.9547C32.2872 27.2722 32.1746 27.5828 31.9448 27.8293L31.5822 28.2184C31.33 28.4892 30.9856 28.6261 30.6329 28.6271C30.3128 28.6261 30.0006 28.5135 29.7537 28.2858L24.34 23.2876H24.339L24.338 23.2866L23.2844 24.4201L23.2855 24.4211L23.3058 24.4402L26.0172 26.9427C26.2575 27.1896 26.3819 27.5061 26.3829 27.8334C26.3819 28.1493 26.2703 28.4584 26.0405 28.705L25.6779 29.0945C25.4247 29.3653 25.0824 29.5012 24.7317 29.5023C24.4126 29.5013 24.1003 29.3892 23.8534 29.1605L21.4926 26.9745C21.698 26.5714 21.8127 26.1341 21.8127 25.6952C21.8137 24.9508 21.518 24.2002 20.9334 23.6457L20.5464 23.2784C19.9981 22.758 19.2868 22.4982 18.585 22.4992C18.5306 22.4992 18.4756 22.5117 18.4222 22.5148C18.4222 22.5019 18.4252 22.4883 18.4252 22.4754C18.4262 21.731 17.546 20.4248 17.546 20.4248L17.16 20.0586C16.7497 19.6695 16.249 19.4268 15.7283 19.3292C15.8356 19.0253 15.8964 18.7088 15.8964 18.3918C15.8964 17.6474 15.6017 16.8962 15.0171 16.3423L14.6311 15.975C14.0817 15.4542 13.3706 15.1943 12.6687 15.1949C12.5868 15.1949 12.5059 15.2114 12.4244 15.2187C12.4021 14.5039 12.1142 13.7896 11.554 13.2574V13.2569L11.1691 12.8912C10.6196 12.3699 9.90853 12.1099 9.20663 12.1105C8.45801 12.1099 7.7043 12.4036 7.14676 12.9856L6.22961 13.9427L2.16674 10.4774C1.87473 10.2274 1.72895 9.8819 1.72788 9.52712C1.72886 9.22984 1.83006 8.93881 2.04584 8.69718L6.33277 3.89612C6.5029 3.70522 6.75452 3.53251 7.04921 3.41258C7.3439 3.29274 7.67844 3.22694 7.99123 3.22739C8.26363 3.22739 8.51926 3.27669 8.72372 3.36488L11.0773 4.36914C11.7408 4.64876 12.5111 4.76342 13.2852 4.76592C14.0602 4.76333 14.8295 4.64867 15.4931 4.36914L17.8456 3.36532C18.2082 3.20715 18.7554 3.10907 19.2996 3.11112C19.9014 3.10746 20.5041 3.23202 20.8537 3.41044C21.0758 3.52092 21.2864 3.62577 21.4819 3.72376L19.0827 5.41031C18.3117 5.95243 17.8962 6.81456 17.8973 7.68454C17.8963 8.26036 18.0788 8.84653 18.4503 9.34398L18.4493 9.34291L18.7662 9.76875C19.368 10.5687 20.3064 10.9801 21.2443 10.9821C21.7739 10.9821 22.3134 10.8483 22.7943 10.5598L24.2291 9.69814C24.5218 9.51918 24.9637 9.40612 25.4206 9.40817C25.9576 9.40505 26.4986 9.56385 26.8239 9.8029L30.7934 12.6488C31.6769 13.2817 33.1158 14.4556 33.9132 15.1943L38.5078 19.4424C38.7798 19.6946 38.9167 20.0355 38.9178 20.3857ZM43.8678 9.86095L37.747 16.6291L34.968 14.0602C34.0976 13.2567 32.6622 12.0849 31.6994 11.3933L27.731 8.54747C27.0581 8.0708 26.2344 7.86474 25.4199 7.86171C24.7269 7.86376 24.0286 8.0148 23.4259 8.37369L21.9921 9.23537C21.7721 9.3676 21.5128 9.4351 21.2435 9.43564C20.762 9.43724 20.2801 9.21255 20.0115 8.84679L19.6956 8.42148L19.6945 8.42041C19.5264 8.19375 19.4481 7.93955 19.447 7.68222C19.449 7.2931 19.6285 6.91549 19.9762 6.67011L24.2185 3.68935C24.5854 3.42382 25.2379 3.23755 25.8578 3.24219C26.2884 3.24014 26.6997 3.32672 26.9814 3.46581L30.4352 5.1388C31.024 5.42154 31.6885 5.53719 32.3571 5.53879C33.2161 5.5346 34.0845 5.34789 34.7999 4.90849L38.328 2.71371C38.5531 2.57319 38.8234 2.50052 39.1051 2.50052C39.5814 2.49954 40.0586 2.71532 40.3288 3.06751L43.9461 7.69586C44.1546 7.96095 44.2754 8.3349 44.2754 8.7225C44.2761 9.15593 44.123 9.5824 43.8678 9.86095Z" fill="white"/>
</svg>
