<svg version="1.1" xmlns="http://www.w3.org/2000/svg" x="0" y="0" width="19" height="21" viewBox="0, 0, 19, 21">
  <g>
    <path d="M18.22,10.371 L9.966,0.842 C9.85,0.706 9.681,0.627 9.502,0.625 C9.323,0.624 9.152,0.701 9.034,0.835 L0.78,10.375 C0.619,10.563 0.579,10.827 0.679,11.054 C0.778,11.281 0.998,11.432 1.246,11.441 L3.055,11.441 L3.055,18.892 C3.106,19.304 3.414,19.637 3.82,19.721 L6.9,19.721 L6.9,13.265 C6.908,13.108 6.981,12.962 7.102,12.862 C7.222,12.761 7.379,12.716 7.535,12.737 L11.459,12.737 C11.608,12.718 11.758,12.766 11.868,12.868 C11.979,12.969 12.038,13.115 12.031,13.265 L12.031,19.721 L15.176,19.721 C15.567,19.63 15.852,19.293 15.876,18.892 L15.876,11.446 L17.748,11.446 C17.999,11.439 18.224,11.288 18.325,11.058 C18.426,10.828 18.385,10.56 18.22,10.371 z" fill-opacity="0" stroke="currentColor" stroke-width="1.25" stroke-miterlimit="10"/>
  </g>
</svg>
