<svg width="5" height="8" viewBox="0 0 5 8" fill="none" xmlns="http://www.w3.org/2000/svg">
<path d="M0.816 0.656C0.804667 0.633333 0.793333 0.616333 0.782 0.604999C0.770667 0.582333 0.765 0.559667 0.765 0.537C0.765 0.480333 0.776333 0.446333 0.799 0.435C0.821667 0.423666 0.844333 0.412333 0.867 0.401L1.428 0.0779997C1.47333 0.0553329 1.50167 0.0439996 1.513 0.0439996C1.56967 0.0439996 1.60933 0.0609995 1.632 0.0949994C1.65467 0.129 1.67733 0.157333 1.7 0.18L4.556 3.767C4.57867 3.78967 4.59567 3.81233 4.607 3.835C4.62967 3.84633 4.641 3.88033 4.641 3.937C4.641 3.99367 4.62967 4.03333 4.607 4.056C4.59567 4.06733 4.57867 4.08433 4.556 4.107L1.7 7.694C1.67733 7.71667 1.65467 7.745 1.632 7.779C1.60933 7.813 1.56967 7.83 1.513 7.83C1.50167 7.83 1.47333 7.81867 1.428 7.796L0.867 7.473C0.844333 7.46167 0.821667 7.45033 0.799 7.439C0.776333 7.42767 0.765 7.39367 0.765 7.337C0.765 7.31433 0.770667 7.29733 0.782 7.286C0.793333 7.26333 0.804667 7.24067 0.816 7.218L3.026 3.937L0.816 0.656Z" fill="#D4D4D4"/>
</svg>
