<svg width="13" height="17" viewBox="0 0 13 17" fill="none" xmlns="http://www.w3.org/2000/svg">
<path fill-rule="evenodd" clip-rule="evenodd" d="M0 2C0 0.89543 0.895431 0 2 0L6.97485 0L13 6.0282V15C13 16.1046 12.1046 17 11 17H2C0.89543 17 0 16.1046 0 15V2Z" fill="#CD0000"/>
<path d="M3.33002 14.205H3.00502V12.925H3.39002C3.42002 12.925 3.46002 12.93 3.50502 12.93C3.54502 12.93 3.59002 12.935 3.63502 12.945C3.68002 12.955 3.72502 12.965 3.76502 12.98C3.80502 13 3.84502 13.025 3.88502 13.055C3.92502 13.095 3.96002 13.15 3.99002 13.22C4.02002 13.29 4.03502 13.385 4.03502 13.505C4.03502 13.595 4.02002 13.685 4.00002 13.775C3.98002 13.865 3.94002 13.945 3.89002 14.01C3.85002 14.06 3.80502 14.095 3.76002 14.12C3.71502 14.15 3.67002 14.17 3.62002 14.18C3.57002 14.195 3.52502 14.205 3.47502 14.205C3.42502 14.205 3.37502 14.205 3.33002 14.205ZM3.43502 15.94V15.735C3.43502 15.72 3.43002 15.705 3.42502 15.695C3.41502 15.685 3.40002 15.675 3.37502 15.675H3.00502V14.555H3.36502C3.56502 14.555 3.72502 14.53 3.85002 14.48C3.97502 14.43 4.07502 14.37 4.14502 14.305C4.21502 14.24 4.28502 14.14 4.35002 14.01C4.41002 13.88 4.44502 13.705 4.44502 13.485C4.44502 13.37 4.43002 13.25 4.40002 13.125C4.37002 13.005 4.30002 12.895 4.20002 12.795C4.14502 12.745 4.08502 12.71 4.02502 12.68C3.96002 12.65 3.89502 12.63 3.83502 12.615C3.77502 12.6 3.71502 12.59 3.66002 12.585C3.60502 12.58 3.56002 12.575 3.52002 12.575H2.28002C2.25002 12.575 2.23502 12.585 2.23002 12.595C2.22002 12.605 2.22002 12.62 2.22002 12.635V12.84C2.22002 12.86 2.22002 12.875 2.23002 12.885C2.23502 12.895 2.25002 12.9 2.28002 12.9H2.59502V15.675H2.28002C2.26002 15.675 2.24502 15.68 2.23502 15.685C2.22502 15.695 2.22002 15.71 2.22002 15.735V15.94C2.22002 15.96 2.22002 15.975 2.23002 15.985C2.23502 15.995 2.25002 16 2.28002 16H3.37502C3.39002 16 3.40502 16 3.41502 15.99C3.42502 15.985 3.43502 15.97 3.43502 15.94ZM6.46443 15.65H6.15443V12.925H6.42943C6.48943 12.925 6.55943 12.93 6.62943 12.935C6.69943 12.945 6.76943 12.96 6.83943 12.985C6.90943 13.015 6.97443 13.055 7.03443 13.11C7.09443 13.165 7.14943 13.24 7.19443 13.33C7.24443 13.45 7.27943 13.585 7.29943 13.74C7.31943 13.9 7.32943 14.08 7.32943 14.29C7.32943 14.43 7.31943 14.565 7.30943 14.705C7.29443 14.845 7.26943 14.98 7.22943 15.1C7.15943 15.305 7.06443 15.45 6.93943 15.53C6.80943 15.61 6.65443 15.65 6.46443 15.65ZM6.56443 12.575H5.42943C5.39943 12.575 5.38443 12.585 5.37943 12.595C5.36943 12.605 5.36943 12.62 5.36943 12.635V12.84C5.36943 12.86 5.36943 12.875 5.37943 12.885C5.38443 12.895 5.39943 12.9 5.42943 12.9H5.74443V15.675H5.42943C5.40943 15.675 5.39443 15.68 5.38443 15.685C5.37443 15.695 5.36943 15.71 5.36943 15.735V15.94C5.36943 15.96 5.36943 15.975 5.37943 15.985C5.38443 15.995 5.39943 16 5.42943 16H6.37943C6.43943 16 6.50943 16 6.58943 15.995C6.66943 15.99 6.75443 15.975 6.84443 15.955C6.93443 15.935 7.01943 15.905 7.10943 15.865C7.19443 15.825 7.27443 15.765 7.35443 15.695C7.44443 15.605 7.51943 15.5 7.57943 15.375C7.63443 15.255 7.67943 15.125 7.70943 14.995C7.73943 14.865 7.75443 14.73 7.76443 14.6C7.77443 14.47 7.77943 14.355 7.77943 14.255C7.77943 14.13 7.76943 14 7.75943 13.86C7.74943 13.72 7.72443 13.585 7.68943 13.45C7.65443 13.32 7.60443 13.195 7.53943 13.08C7.47443 12.965 7.38943 12.865 7.28943 12.785C7.22443 12.74 7.13443 12.695 7.01943 12.645C6.90443 12.6 6.75443 12.575 6.56443 12.575ZM10.0205 15.675H9.65053V14.42H10.6355C10.6505 14.42 10.6655 14.42 10.6755 14.41C10.6855 14.405 10.6955 14.39 10.6955 14.36V14.13C10.6955 14.115 10.6905 14.1 10.6855 14.09C10.6755 14.08 10.6605 14.07 10.6355 14.07H9.65053V12.925H10.5355V13.325C10.5355 13.345 10.5355 13.36 10.5455 13.37C10.5505 13.38 10.5655 13.385 10.5955 13.385H10.8155C10.8405 13.385 10.8555 13.38 10.8655 13.37C10.8705 13.36 10.8755 13.345 10.8755 13.325V12.635C10.8755 12.62 10.8705 12.605 10.8655 12.595C10.8555 12.585 10.8405 12.575 10.8155 12.575H8.92553C8.89553 12.575 8.88053 12.585 8.87553 12.595C8.86553 12.605 8.86553 12.62 8.86553 12.635V12.84C8.86553 12.86 8.86553 12.875 8.87553 12.885C8.88053 12.895 8.89553 12.9 8.92553 12.9H9.24053V15.675H8.92553C8.90553 15.675 8.89053 15.68 8.88053 15.685C8.87053 15.695 8.86553 15.71 8.86553 15.735V15.94C8.86553 15.96 8.86553 15.975 8.87553 15.985C8.88053 15.995 8.89553 16 8.92553 16H10.0205C10.0355 16 10.0505 16 10.0605 15.99C10.0705 15.985 10.0805 15.97 10.0805 15.94V15.735C10.0805 15.72 10.0755 15.705 10.0705 15.695C10.0605 15.685 10.0455 15.675 10.0205 15.675Z" fill="white"/>
<path fill-rule="evenodd" clip-rule="evenodd" d="M13.0002 6.00586H8.00061C8.00061 6.00586 7.48513 5.99142 7.23962 5.75488C6.99412 5.51835 7 5.04181 7 5.04181V0.00585938L13.0002 6.00586Z" fill="white" fill-opacity="0.4"/>
</svg>
