<svg viewBox="17 16 41 41" fill="none" xmlns="http://www.w3.org/2000/svg">
  <path d="M37.5 55.25C47.8553 55.25 56.25 46.8553 56.25 36.5C56.25 26.1447 47.8553 17.75 37.5 17.75C27.1447 17.75 18.75 26.1447 18.75 36.5C18.75 46.8553 27.1447 55.25 37.5 55.25Z" stroke="#282828" stroke-width="2" stroke-linecap="round" stroke-linejoin="round"/>
  <path d="M32.0439 30.8751C32.4848 29.622 33.3549 28.5653 34.5001 27.8922C35.6454 27.2191 36.9919 26.9731 38.3012 27.1977C39.6104 27.4223 40.798 28.1029 41.6535 29.1192C42.509 30.1355 42.9772 31.4217 42.9752 32.7501C42.9752 36.5001 37.3502 38.3751 37.3502 38.3751V41.6925" stroke="#282828" stroke-width="2" stroke-linecap="round" stroke-linejoin="round"/>
  <path d="M37.5 45.875H37.5179" stroke="#282828" stroke-width="2" stroke-linecap="round" stroke-linejoin="round"/>
</svg>
