<svg width="12" height="15" viewBox="0 0 12 15" fill="none" xmlns="http://www.w3.org/2000/svg">
<path d="M2.037 15V12.144H0.21V10.779H2.037V8.91H0.21V7.314H2.037V0.00599903H5.985C7.819 0.00599903 9.177 0.376999 10.059 1.119C10.955 1.861 11.403 2.939 11.403 4.353C11.403 5.781 10.92 6.901 9.954 7.713C8.988 8.511 7.567 8.91 5.691 8.91H3.927V10.779H7.392V12.144H3.927V15H2.037ZM3.927 7.314H5.418C6.692 7.314 7.679 7.104 8.379 6.684C9.093 6.264 9.45 5.508 9.45 4.416C9.45 3.464 9.156 2.757 8.568 2.295C7.98 1.833 7.063 1.602 5.817 1.602H3.927V7.314Z" fill="#DEDEDE"/>
</svg>
