<svg width="60" height="60" fill="none" xmlns="http://www.w3.org/2000/svg">
  <circle cx="30" cy="30" r="25.5" fill="url(#paint12_linear)" stroke="url(#paint13_linear)" stroke-width="1.5"/>
  <path opacity=".8" d="M20.77 40.674a.75.75 0 00.96 1.152l-.96-1.152zm17.582 1.212a.75.75 0 00.796-1.272l-.796 1.272zM21.25 41.25l.48.577h-.001l.001-.001.011-.009a4.624 4.624 0 01.284-.21c.206-.147.518-.353.924-.584.813-.462 2-1.018 3.483-1.39 2.948-.736 7.11-.754 11.92 2.253l.796-1.272c-5.19-3.244-9.778-3.261-13.08-2.435a15.447 15.447 0 00-3.86 1.54c-.454.258-.806.49-1.049.662a8.364 8.364 0 00-.378.284l-.007.005-.003.002v.001l.479.577zM13.799 19.52a.75.75 0 001.152.96l-1.152-.96zm8.438-.693a.75.75 0 00.526-1.404l-.526 1.404zM14.375 20l.576.48v.001h-.001v.001l.002-.003a2.103 2.103 0 01.107-.116c.082-.085.207-.208.374-.353.335-.291.83-.662 1.465-.98 1.256-.628 3.069-1.054 5.339-.203l.526-1.404c-2.73-1.024-4.98-.513-6.536.266a8.597 8.597 0 00-1.777 1.188 7.334 7.334 0 00-.634.623.804.804 0 00-.01.012l-.005.005-.001.002.575.481zM34.478 17.318a.75.75 0 00-1.456.364l1.456-.364zm6.92 4.667a.75.75 0 10-.295-1.47l.294 1.47zM33.75 17.5c-.728.182-.727.182-.727.183v.003l.002.007.005.018a3.711 3.711 0 00.077.246 6.519 6.519 0 001.519 2.417c1.277 1.277 3.41 2.284 6.771 1.611l-.294-1.47c-2.888.577-4.506-.291-5.416-1.202a5.016 5.016 0 01-1.162-1.845 2.838 2.838 0 01-.047-.15l-.001-.003v.002l-.727.183z" fill="#282828"/>
  <circle opacity=".8" cx="22.5" cy="27.5" r="1.75" stroke="#282828" stroke-width="1.5"/>
  <circle opacity=".8" cx="36.5" cy="27.5" r="1.75" stroke="#282828" stroke-width="1.5"/>
  <path d="M51.75 23.75a3 3 0 11-6 0c0-.904.385-2.677 1.04-4.236.325-.774.695-1.443 1.078-1.905.4-.483.702-.609.882-.609.18 0 .482.126.882.61.383.461.753 1.13 1.078 1.904.655 1.559 1.04 3.332 1.04 4.236z" fill="#70E0FF" stroke="#86A47C" stroke-width="1.5"/>
  <defs>
    <linearGradient id="paint12_linear" x1="30" y1="3.75" x2="30" y2="56.25" gradientUnits="userSpaceOnUse">
      <stop offset=".13" stop-color="#FEE311"/>
      <stop offset=".703" stop-color="#FDBA16"/>
      <stop offset="1" stop-color="#FC9D1A"/>
    </linearGradient>
    <linearGradient id="paint13_linear" x1="30" y1="3.75" x2="30" y2="56.25" gradientUnits="userSpaceOnUse">
      <stop stop-color="#FAC12B"/>
      <stop offset="1" stop-color="#F6A000"/>
    </linearGradient>
  </defs>
</svg>
