<svg width="8" height="5" viewBox="0 0 8 5" fill="none" xmlns="http://www.w3.org/2000/svg">
<path d="M7.344 0.816L4.063 3.026L0.782 0.816C0.748 0.799 0.731 0.782 0.714 0.782C0.697 0.765 0.68 0.765 0.663 0.765C0.595 0.765 0.561 0.765 0.561 0.799L0.527 0.867L0.204 1.428C0.17 1.462 0.17 1.496 0.17 1.513C0.17 1.564 0.187 1.598 0.221 1.632C0.255 1.649 0.272 1.666 0.306 1.7L3.893 4.556L3.944 4.607C3.961 4.624 3.995 4.641 4.063 4.641C4.114 4.641 4.148 4.624 4.165 4.607L4.233 4.556L7.82 1.7C7.837 1.666 7.871 1.649 7.905 1.632C7.939 1.598 7.956 1.564 7.956 1.513C7.956 1.496 7.939 1.462 7.922 1.428L7.599 0.867L7.565 0.799C7.548 0.765 7.514 0.765 7.463 0.765C7.429 0.765 7.412 0.765 7.395 0.782C7.378 0.782 7.361 0.799 7.344 0.816Z" fill="#1E1E22"/>
</svg>
