<svg width="48" height="55" viewBox="0 0 48 55" fill="none" xmlns="http://www.w3.org/2000/svg">
  <g clip-path="url(#clip0)">
    <path fill-rule="evenodd" clip-rule="evenodd" d="M1.76367 43.1799L11.9948 53.2384H43.7128C44.9765 53.2384 46.0009 52.2313 46.0009 50.9889V11.9973C46.0009 10.7549 44.9765 9.7478 43.7128 9.7478H4.05181C2.7881 9.7478 1.76367 10.7549 1.76367 11.9973V43.1799Z" fill="white" stroke="#DADADA" stroke-width="3"/>
    <path d="M19.3066 0H20.8321V1.49968H22.3575V0H23.8829V1.49968H25.4083V0H26.9338V1.49968H28.4592V14.9968H19.3066V0Z" fill="#727171"/>
    <path d="M12.4407 53.9884V42.7407H1L1 43.4906L11.678 53.9884H12.4407Z" fill="#979797"/>
    <path d="M9.5 23.3737C9.5 21.4407 11.067 19.8737 13 19.8737H34.8571C36.7901 19.8737 38.3571 21.4407 38.3571 23.3737V37.3737C38.3571 39.3067 36.7901 40.8737 34.8571 40.8737H13C11.067 40.8737 9.5 39.3067 9.5 37.3737V23.3737Z" fill="#FFDC7D" stroke="#EDB832" stroke-linecap="round"/>
    <path fill-rule="evenodd" clip-rule="evenodd" d="M24.7148 26.4451C24.7148 26.0111 25.1306 25.6594 25.6434 25.6594H34.0006C34.5134 25.6594 34.9291 26.0111 34.9291 26.4451C34.9291 26.879 34.5134 27.2308 34.0006 27.2308H25.6434C25.1306 27.2308 24.7148 26.879 24.7148 26.4451Z" fill="#636363"/>
    <path fill-rule="evenodd" clip-rule="evenodd" d="M24.7148 30.3737C24.7148 29.9397 25.1306 29.588 25.6434 29.588H34.0006C34.5134 29.588 34.9291 29.9397 34.9291 30.3737C34.9291 30.8076 34.5134 31.1594 34.0006 31.1594H25.6434C25.1306 31.1594 24.7148 30.8076 24.7148 30.3737Z" fill="#636363"/>
    <path fill-rule="evenodd" clip-rule="evenodd" d="M24.7148 34.3023C24.7148 33.8683 25.1306 33.5165 25.6434 33.5165H34.0006C34.5134 33.5165 34.9291 33.8683 34.9291 34.3023C34.9291 34.7362 34.5134 35.088 34.0006 35.088H25.6434C25.1306 35.088 24.7148 34.7362 24.7148 34.3023Z" fill="#636363"/>
    <path fill-rule="evenodd" clip-rule="evenodd" d="M12.9287 34.7013C12.9287 33.8038 12.9287 34.2967 12.9287 32.8415C12.9287 31.3864 14.5001 29.588 17.643 29.588C20.7859 29.588 22.3573 31.3864 22.3573 32.8415C22.3573 34.2967 22.3573 33.6099 22.3573 34.7013C22.3573 35.7926 20.9931 36.6594 17.643 36.6594C14.2929 36.6594 12.9287 35.5987 12.9287 34.7013Z" fill="#502F00"/>
    <path fill-rule="evenodd" clip-rule="evenodd" d="M17.6429 30.3737C20 30.3737 20.7857 28.56 20.7857 26.9689C20.7857 25.3778 19.3786 24.088 17.6429 24.088C15.9071 24.088 14.5 25.3778 14.5 26.9689C14.5 28.56 15.2857 30.3737 17.6429 30.3737Z" fill="#F7EFD8"/>
  </g>
</svg>
