<svg width="48" height="60" viewBox="0 0 48 60" fill="none" xmlns="http://www.w3.org/2000/svg">
  <path fill-rule="evenodd" clip-rule="evenodd" d="M1.76367 46.8419L11.9948 57.7271H43.7128C44.9765 57.7271 46.0009 56.6371 46.0009 55.2927V13.0967C46.0009 11.7523 44.9765 10.6624 43.7128 10.6624H4.05181C2.7881 10.6624 1.76367 11.7523 1.76367 13.0967V46.8419Z" fill="white" stroke="#DADADA" stroke-width="3"/>
  <path fill-rule="evenodd" clip-rule="evenodd" d="M11.0348 33.9569C6.4465 22.5176 21.1291 18.7045 23.8821 28.2372C26.6351 18.7045 41.3178 22.5176 36.7295 33.9569C34.8466 38.651 28.7853 42.4569 23.8821 45.5552C18.979 42.4569 12.9176 38.651 11.0348 33.9569Z" fill="#EF8B8B"/>
  <path d="M19.3066 0.113281H20.8321V1.7362H22.3575V0.113281H23.8829V1.7362H25.4083V0.113281H26.9338V1.7362H28.4592V16.3425H19.3066V0.113281Z" fill="#727171"/>
  <path d="M12.4407 58.5386V46.3667H1L1 47.1782L11.678 58.5386H12.4407Z" fill="#979797"/>
</svg>
