<?xml version="1.0" encoding="UTF-8"?>
<svg viewBox="0 0 59 64" xmlns="http://www.w3.org/2000/svg">
  <defs>
    <linearGradient id="e" x1="50.002%" x2="50.002%" y1=".009952%" y2="100%">
      <stop stop-color="#FFA921" offset="0"/>
      <stop stop-color="#FFD210" offset=".6427"/>
      <stop stop-color="#FFE408" offset="1"/>
    </linearGradient>
    <linearGradient id="d" x1="50.142%" x2="50.142%" y1="-.012775%" y2="99.867%">
      <stop stop-color="#FFA921" offset="0"/>
      <stop stop-color="#FFD210" offset=".6427"/>
      <stop stop-color="#FFE408" offset="1"/>
    </linearGradient>
    <linearGradient id="c" x1="50.196%" x2="50.196%" y1=".061066%" y2="99.95%">
      <stop stop-color="#FFA921" offset="0"/>
      <stop stop-color="#FFD210" offset=".6427"/>
      <stop stop-color="#FFE408" offset="1"/>
    </linearGradient>
    <linearGradient id="b" x1="50.137%" x2="50.137%" y1=".004005%" y2="99.925%">
      <stop stop-color="#FFA921" offset="0"/>
      <stop stop-color="#FFD210" offset=".6427"/>
      <stop stop-color="#FFE408" offset="1"/>
    </linearGradient>
    <linearGradient id="a" x1="50.059%" x2="50.059%" y1="-135.33%" y2="290.23%">
      <stop stop-color="#FFA921" offset="0"/>
      <stop stop-color="#FFD210" offset=".6427"/>
      <stop stop-color="#FFE408" offset="1"/>
    </linearGradient>
  </defs>
  <g fill="none" fill-rule="evenodd">
    <g transform="translate(-692 -279)">
      <g transform="translate(262 222)">
        <g transform="translate(418 49)">
          <g transform="translate(40 40.449) scale(-1 1) rotate(180) translate(-40 -40)">
            <g transform="translate(12 9)" fill-rule="nonzero">
              <path id="Shape" d="m48.419 20.938c0 2.3397-9.438 1.4672-11.341 2.5379 13.998-8.3276 27.561 10.231 16.338 12.571-7.0587 1.4276-20.423-1.8638-21.374 0.19828-2.2207 4.838 3.0138 8.2087 4.4414 9.9932 2.419 3.0138 2.5379 3.7673 3.3311 7.8121 1.2293 6.3052-0.99139 9.3983-3.4104 9.3983-2.8155 0-4.9173-6.3449-9.0018-11.222-3.688-4.3621-7.2173-7.3362-11.381-11.5-2.1414-2.1414-4.2828-7.1776-5.869-8.7242-2.2207-2.181-3.6483-1.7448-4.719-2.0621-3.6086-1.0707-5.4328-2.3397-5.4328-6.2656v-11.738c0-4.0845 2.0621-5.3138 6.4242-5.3931 2.7362-0.079311 4.5604-0.51552 6.0276-1.1897 3.8466-1.7448 2.5379-3.7276 19.233-4.0845 10.945-0.23793 10.112 4.2035 13.602 5.7104 0 0 0.15862-4.6 0.19828-4.6 2.6569 0.7138 3.8466 2.8155 3.8466 5.6707 0 1.1897 2.6966 0.15862 2.1017 1.1104 2.3793 0.87242-3.0138 9.2397-3.0138 11.778z" fill="url(#e)"/>
              <path id="Shape" d="m47.983 11.619s-2.2604 0.47586-8.8035 0.67414c-2.9345 0.079311-3.569-0.31724-5.0759-3.4897-1.1104-2.3397-0.83276-6.3845 1.7448-7.5742 2.5776-1.2293 4.1242-1.3879 9.1207-1.1104 2.1017 0.11897 3.9655 1.1104 4.5604 1.7448 0.79311 0.79311 1.3879 1.7448 1.6259 4.1638 0.15862 1.5466-0.15862 5.2742-0.91207 5.8293-0.99139 0.67414-4.9173 3.688-4.9173 3.688" fill="url(#d)"/>
              <path id="Shape" d="m34.5 1.4276c-0.51552 0.51552-0.91207 1.15-1.1897 1.9431-0.63449 1.7448-0.51552 4.0449 0.27759 5.6707 1.5862 3.3311 2.419 3.9259 5.6311 3.8466 6.5035-0.15862 8.8035-0.67414 8.8828-0.67414l-0.23793-1.15c-0.039655 0-2.3 0.47586-8.6845 0.67414-2.6569 0.079311-3.0535-0.11897-4.5207-3.1724-0.67414-1.3879-1.031-3.3707-0.51552-4.838 0.19828-0.55518 0.67414-1.7845 1.3086-2.2604 0.15862-0.15862-0.63449-0.3569-0.95173-0.039655z" fill="#B7892C"/>
              <path id="Shape" d="m51.473 17.171s-5.0362 0.7138-11.738 0.95173c0.87242-0.039655-4.5604-0.039655-5.1552-5.1552-0.31724-2.6569 0.039655-5.6707 2.7759-6.5828 2.3-0.79311 4.9569-1.031 9.9535-0.75345 3.4897 0.19828 6.1466 1.5466 6.5828 5.7104 0.15862 1.5862-0.11897 5.4328-0.87242 5.988-0.99139 0.7138-4.2035 3.8862-4.2035 3.8862" fill="url(#c)"/>
              <path id="Shape" d="m44.612 4.9569c-2.8155 0-5.6311 0.27759-7.4156 0.87242-2.5379 0.87242-3.6086 3.3707-3.1724 7.2173 0.3569 3.0138 2.3793 5.0759 5.5914 5.6311h0.079311l0.079311-0.31724v0.31724c6.6621-0.23793 11.778-0.95173 11.817-0.95173l-0.15862-1.1897c-0.039655 0-4.9966 0.7138-11.5 0.95173h-0.079311c-1.5466-0.27759-4.2431-1.2293-4.6397-4.6-0.39655-3.2914 0.43621-5.3138 2.3793-5.988 2.3-0.79311 4.9569-1.1897 9.6363-0.91207 0.83276 0.039655 3.1328 0.31724 3.7673 0.47586 0.23793 0.079311 0.23793 0.11897 0.23793-0.039655-0.039655-0.47586 0.11897-0.55518-0.3569-0.75345-1.3086-0.51552-4.3621-0.7138-6.2656-0.7138z" fill="#B7892C"/>
              <path id="Shape" d="m53.376 24.19s-2.8948 0.39655-9.7949 0.23793c-3.0931-0.039655-7.019 0.19828-7.8518-4.2431-0.47586-2.6966-0.15862-5.6707 2.6966-6.4638 3.2517-0.91207 6.7811-1.3879 11.976-0.83276 1.5069 0.15862 3.0535 0.51552 4.4414 1.8241 0.83276 0.79311 1.031 2.8155 1.1897 5.3535 0.11897 1.6259 0 6.6225 0 6.6225" fill="url(#b)"/>
              <path id="Shape" d="m53.614 13.086c-0.99139-0.43621-1.6655-0.55518-2.5776-0.7138-1.0707-0.23793-3.4897-0.31724-4.838-0.31724-2.8155 0-5.3138 0.3569-7.9311 1.1104-2.6966 0.75345-3.8069 3.3707-3.1328 7.1776 0.87242 4.6 4.8776 4.6397 7.8121 4.6793h0.63449c6.8207 0.11897 6.7414-1.0707 0.039655-1.1897h-0.63449c-2.9345-0.039655-5.988-0.079311-6.6621-3.7276-0.31724-1.8241-0.31724-5.1949 2.419-5.988 2.6173-0.75345 4.3224-1.2293 9.9535-1.1104 0.87242 0 3.3311 0.23793 4.4414 0.59483 0.3569 0.11897 0.79311 0.39655 0.79311 0.15862 0.079311-0.55518-0.039655-0.55518-0.31724-0.67414z" fill="#B7892C"/>
              <path id="Shape" d="m53.059 30.098s-2.6966 0-4.4811-0.079311c-1.9828-0.079311-5.5121-0.19828-7.6931-0.43621-3.0138-0.31724-4.8776-0.87242-5.0759-3.8862-0.079311-1.8241 0.31724-4.2828 4.2828-4.6793 3.569-0.3569 6.3052-0.75345 10.548-0.43621 2.3 0.15862 5.3535 0.19828 6.5431 1.6655 0.95173 1.2293 0.83276 2.3 1.031 3.688 0.3569 2.8155 0.31724 7.4156-3.3311 9.5966" fill="url(#a)"/>
              <path id="Shape" d="m39.021 20.224c-2.6966 0.43621-3.9259 2.6966-3.7673 5.5518 0.19828 3.569 2.6569 4.1242 5.5914 4.4414 1.9035 0.19828 4.719 0.31724 6.7811 0.39655l0.95173 0.039655c1.7845 0.079311 4.4811 0.039655 4.4811 0.039655s0.63449 0 0.63449-0.59483c0-0.63449-0.63449-0.59483-0.63449-0.59483-0.039655 0-2.6966 0-4.4414-0.079311l-0.95173-0.039655c-2.0621-0.039655-4.838-0.15862-6.7018-0.3569-3.2121-0.3569-4.4017-0.91207-4.5207-3.3311-0.11897-1.8241 0.23793-4.1242 3.7276-4.4811 0.47586-0.039655 6.1466-1.3879 15.902 0.19828 0.19828-0.31724 0.079311-0.79311-0.19828-0.79311-8.6449-2.1017-15.029-0.7138-16.854-0.39655z" fill="#B7892C"/>
              <path id="f" d="m48.816 30.098h-1.1897c0 0.63449 0.87242 2.5379 1.4276 3.6086 0 0 0.23793 0.31724 0.7138 0.11897 0.51552-0.19828 0.3569-0.63449 0.3569-0.63449-0.59483-1.2293-1.269-2.7362-1.3086-3.0931z" fill="#B7892C"/>
              <path d="m24.705 20.7s-0.59483-0.27759-0.75345 0.079311c-0.27759 0.7138 0.27759 0.99139 0.27759 0.99139 4.3621 1.9431 8.6845 8.2483 7.7328 14.871 0 0 0.079311-0.55518 0.51552-0.7138 0.3569-0.11897 0.7138-0.31724 0.7138-0.31724 0.87242-6.7414-3.7276-12.809-8.4863-14.91z" fill="#B7892C"/>
            </g>
          </g>
        </g>
      </g>
    </g>
  </g>
</svg>
