<svg width="36" height="36" viewBox="0 0 36 36" fill="none" xmlns="http://www.w3.org/2000/svg">
<g clip-path="url(#clip0)">
<path d="M35.6564 30.1216L20.1948 3.34139C19.7367 2.54791 18.9162 2.07422 18 2.07422C17.0838 2.07422 16.2633 2.54791 15.8052 3.34139L0.343617 30.1216C-0.114539 30.9151 -0.114539 31.8625 0.343617 32.6559C0.801703 33.4494 1.62218 33.9231 2.53842 33.9231H33.4616C34.3778 33.9231 35.1983 33.4494 35.6564 32.6559C36.1145 31.8625 36.1145 30.9151 35.6564 30.1216ZM33.8274 31.6C33.7819 31.6789 33.6737 31.8112 33.4616 31.8112H2.53842C2.32622 31.8112 2.21808 31.6789 2.17266 31.6C2.12716 31.5212 2.06655 31.3613 2.17266 31.1776L17.6342 4.39734C17.7403 4.21362 17.9089 4.18613 17.9999 4.18613C18.0911 4.18613 18.2597 4.21355 18.3657 4.39734L33.8273 31.1776C33.9335 31.3613 33.8729 31.5212 33.8274 31.6Z" fill="#FF7D7D"/>
<path d="M19.0563 11.6758H16.9443V22.9396H19.0563V11.6758Z" fill="#FF7D7D"/>
<path d="M18.0003 27.8687C18.7779 27.8687 19.4083 27.2384 19.4083 26.4607C19.4083 25.6831 18.7779 25.0527 18.0003 25.0527C17.2227 25.0527 16.5923 25.6831 16.5923 26.4607C16.5923 27.2384 17.2227 27.8687 18.0003 27.8687Z" fill="#FF7D7D"/>
</g>
<defs>
<clipPath id="clip0">
<rect width="36" height="36" fill="white"/>
</clipPath>
</defs>
</svg>
