<svg width="13" height="17" viewBox="0 0 13 17" fill="none" xmlns="http://www.w3.org/2000/svg">
<path fill-rule="evenodd" clip-rule="evenodd" d="M0 2C0 0.89543 0.895431 0 2 0L6.97485 0L13 6.0282V15C13 16.1046 12.1046 17 11 17H2C0.89543 17 0 16.1046 0 15V2Z" fill="#4889F7"/>
<path d="M3.14168 15.65C3.33168 15.65 3.49001 15.61 3.61668 15.53C3.74335 15.4467 3.84001 15.3033 3.90668 15.1C3.94668 14.9767 3.97335 14.845 3.98668 14.705C4.00001 14.565 4.00668 14.4267 4.00668 14.29C4.00668 14.08 3.99668 13.8967 3.97668 13.74C3.96001 13.5833 3.92501 13.4467 3.87168 13.33C3.82835 13.2367 3.77501 13.1633 3.71168 13.11C3.65168 13.0533 3.58668 13.0117 3.51668 12.985C3.44668 12.9583 3.37668 12.9417 3.30668 12.935C3.23668 12.9283 3.17001 12.925 3.10668 12.925H2.83168V15.65H3.14168ZM3.24168 12.575C3.43168 12.575 3.58335 12.5983 3.69668 12.645C3.81335 12.6917 3.90335 12.7383 3.96668 12.785C4.07001 12.865 4.15335 12.9633 4.21668 13.08C4.28335 13.1933 4.33335 13.3167 4.36668 13.45C4.40335 13.5833 4.42668 13.72 4.43668 13.86C4.45001 13.9967 4.45668 14.1283 4.45668 14.255C4.45668 14.355 4.45168 14.47 4.44168 14.6C4.43501 14.73 4.41668 14.8617 4.38668 14.995C4.35668 15.125 4.31335 15.2517 4.25668 15.375C4.20001 15.4983 4.12501 15.605 4.03168 15.695C3.95501 15.765 3.87335 15.8217 3.78668 15.865C3.70001 15.905 3.61168 15.935 3.52168 15.955C3.43501 15.975 3.35001 15.9883 3.26668 15.995C3.18668 15.9983 3.11668 16 3.05668 16H2.10668C2.08001 16 2.06335 15.995 2.05668 15.985C2.05001 15.9717 2.04668 15.9567 2.04668 15.94V15.735C2.04668 15.7083 2.05168 15.6917 2.06168 15.685C2.07501 15.6783 2.09001 15.675 2.10668 15.675H2.42168V12.9H2.10668C2.08001 12.9 2.06335 12.895 2.05668 12.885C2.05001 12.8717 2.04668 12.8567 2.04668 12.84V12.635C2.04668 12.6183 2.05001 12.605 2.05668 12.595C2.06335 12.5817 2.08001 12.575 2.10668 12.575H3.24168ZM6.73277 15.735C6.90944 15.735 7.04444 15.6817 7.13777 15.575C7.23111 15.4683 7.29777 15.3383 7.33777 15.185C7.37777 15.0317 7.39944 14.8733 7.40277 14.71C7.40944 14.5433 7.41277 14.4017 7.41277 14.285C7.41277 14.115 7.40611 13.945 7.39277 13.775C7.38277 13.6017 7.35444 13.4467 7.30777 13.31C7.26444 13.17 7.19777 13.0567 7.10777 12.97C7.01777 12.8833 6.89277 12.84 6.73277 12.84C6.61611 12.84 6.51777 12.865 6.43777 12.915C6.36111 12.965 6.29611 13.0317 6.24277 13.115C6.19277 13.195 6.15444 13.2867 6.12777 13.39C6.10444 13.4933 6.08611 13.5983 6.07277 13.705C6.06277 13.8117 6.05611 13.9167 6.05277 14.02C6.05277 14.12 6.05277 14.2083 6.05277 14.285C6.05277 14.4017 6.05444 14.5433 6.05777 14.71C6.06444 14.8733 6.08777 15.0317 6.12777 15.185C6.16777 15.3383 6.23444 15.4683 6.32777 15.575C6.42111 15.6817 6.55611 15.735 6.73277 15.735ZM7.86277 14.285C7.86277 14.6683 7.82444 14.9767 7.74777 15.21C7.67444 15.4433 7.58111 15.625 7.46777 15.755C7.35444 15.8817 7.23111 15.965 7.09777 16.005C6.96777 16.0483 6.84611 16.07 6.73277 16.07C6.65611 16.07 6.57444 16.0617 6.48777 16.045C6.40111 16.0283 6.31611 15.9967 6.23277 15.95C6.14944 15.9 6.06944 15.8333 5.99277 15.75C5.91611 15.6667 5.84777 15.56 5.78777 15.43C5.73111 15.2967 5.68611 15.1367 5.65277 14.95C5.61944 14.7633 5.60277 14.5417 5.60277 14.285C5.60277 14.2183 5.60444 14.1283 5.60777 14.015C5.61444 13.9017 5.62777 13.78 5.64777 13.65C5.67111 13.5167 5.70611 13.3817 5.75277 13.245C5.79944 13.1083 5.86444 12.9867 5.94777 12.88C6.03111 12.77 6.13611 12.68 6.26277 12.61C6.38944 12.54 6.54611 12.505 6.73277 12.505C6.84611 12.505 6.96777 12.5267 7.09777 12.57C7.23111 12.61 7.35444 12.6933 7.46777 12.82C7.58111 12.9467 7.67444 13.1267 7.74777 13.36C7.82444 13.5933 7.86277 13.9017 7.86277 14.285ZM10.9511 15.685C10.9511 15.7283 10.9478 15.7583 10.9411 15.775C10.9344 15.7917 10.9061 15.8167 10.8561 15.85C10.7261 15.9367 10.5961 15.995 10.4661 16.025C10.3361 16.055 10.2244 16.07 10.1311 16.07C10.0744 16.07 10.0094 16.0633 9.93609 16.05C9.86276 16.04 9.78776 16.0183 9.71109 15.985C9.63776 15.9483 9.56276 15.9 9.48609 15.84C9.41276 15.7767 9.34609 15.695 9.28609 15.595C9.22609 15.495 9.17776 15.3867 9.14109 15.27C9.10443 15.1533 9.07609 15.0367 9.05609 14.92C9.03609 14.8 9.02276 14.6833 9.01609 14.57C9.00943 14.4567 9.00609 14.3517 9.00609 14.255C9.00609 14.155 9.00943 14.0467 9.01609 13.93C9.02276 13.8133 9.03609 13.6967 9.05609 13.58C9.07943 13.46 9.11109 13.345 9.15109 13.235C9.19109 13.1217 9.24276 13.0183 9.30609 12.925C9.39943 12.7883 9.51443 12.685 9.65109 12.615C9.78776 12.5417 9.95109 12.505 10.1411 12.505C10.2378 12.505 10.3344 12.5167 10.4311 12.54C10.5311 12.5633 10.6394 12.6083 10.7561 12.675C10.8461 12.725 10.8961 12.7633 10.9061 12.79C10.9194 12.8133 10.9261 12.8333 10.9261 12.85V13.405C10.9261 13.4217 10.9228 13.4367 10.9161 13.45C10.9094 13.46 10.8928 13.465 10.8661 13.465H10.6461C10.6194 13.465 10.6028 13.46 10.5961 13.45C10.5894 13.4367 10.5861 13.4217 10.5861 13.405V12.98L10.5561 12.96C10.5094 12.9267 10.4444 12.8983 10.3611 12.875C10.2778 12.8517 10.1978 12.84 10.1211 12.84C10.0044 12.84 9.90609 12.865 9.82609 12.915C9.74943 12.965 9.68609 13.0333 9.63609 13.12C9.55609 13.2567 9.50609 13.415 9.48609 13.595C9.46609 13.7717 9.45609 13.9433 9.45609 14.11C9.45609 14.37 9.47109 14.6133 9.50109 14.84C9.53109 15.0667 9.57776 15.2467 9.64109 15.38C9.67443 15.45 9.71443 15.5083 9.76109 15.555C9.80776 15.5983 9.85443 15.635 9.90109 15.665C9.95109 15.6917 9.99943 15.71 10.0461 15.72C10.0961 15.73 10.1411 15.735 10.1811 15.735C10.2578 15.735 10.3294 15.7233 10.3961 15.7C10.4628 15.6733 10.5194 15.6467 10.5661 15.62L10.6111 15.595V15.165C10.6111 15.1483 10.6144 15.135 10.6211 15.125C10.6278 15.1117 10.6444 15.105 10.6711 15.105H10.8911C10.9178 15.105 10.9344 15.1117 10.9411 15.125C10.9478 15.135 10.9511 15.1483 10.9511 15.165V15.685Z" fill="white"/>
<path fill-rule="evenodd" clip-rule="evenodd" d="M13.0002 6.00586H8.00061C8.00061 6.00586 7.48513 5.99142 7.23962 5.75488C6.99412 5.51835 7 5.04181 7 5.04181V0.00585938L13.0002 6.00586Z" fill="white" fill-opacity="0.4"/>
</svg>
