<svg width="13" height="17" viewBox="0 0 13 17" fill="none" xmlns="http://www.w3.org/2000/svg">
<path fill-rule="evenodd" clip-rule="evenodd" d="M0 2C0 0.89543 0.895431 0 2 0L6.97485 0L13 6.0282V15C13 16.1046 12.1046 17 11 17H2C0.89543 17 0 16.1046 0 15V2Z" fill="#E85732"/>
<path d="M3.94768 15.155V12.635C3.94768 12.62 3.94268 12.605 3.93768 12.595C3.92768 12.585 3.91268 12.575 3.88768 12.575H2.66268C2.63268 12.575 2.61768 12.585 2.61268 12.595C2.60268 12.605 2.60268 12.62 2.60268 12.635V12.865C2.60268 12.885 2.60268 12.9 2.61268 12.91C2.61768 12.92 2.63268 12.925 2.66268 12.925H3.53768V15.155C3.53768 15.18 3.53268 15.21 3.53268 15.245C3.53268 15.285 3.52768 15.32 3.51768 15.36C3.50768 15.4 3.49768 15.44 3.48268 15.48C3.46268 15.52 3.44268 15.56 3.41268 15.59C3.37268 15.63 3.32768 15.665 3.26768 15.695C3.20768 15.725 3.12768 15.735 3.03268 15.735C2.86268 15.735 2.73268 15.68 2.64768 15.57C2.59268 15.505 2.55768 15.43 2.54768 15.35C2.53268 15.27 2.52768 15.19 2.52768 15.11V15.08C2.52768 15.065 2.52268 15.05 2.51768 15.04C2.50768 15.03 2.49268 15.02 2.46768 15.02H2.20768C2.18768 15.02 2.17268 15.025 2.16268 15.03C2.15268 15.04 2.14768 15.055 2.14768 15.08V15.17C2.14768 15.27 2.16268 15.375 2.19768 15.485C2.22768 15.6 2.27768 15.7 2.34768 15.785C2.43268 15.895 2.53768 15.97 2.65768 16.01C2.77768 16.05 2.90268 16.07 3.02768 16.07C3.19268 16.07 3.33268 16.05 3.44768 16C3.55768 15.955 3.65268 15.89 3.73268 15.805C3.82268 15.705 3.88268 15.595 3.90768 15.475C3.93268 15.36 3.94768 15.255 3.94768 15.155ZM6.27436 14.205H5.94936V12.925H6.33436C6.36436 12.925 6.40436 12.93 6.44936 12.93C6.48936 12.93 6.53436 12.935 6.57936 12.945C6.62436 12.955 6.66936 12.965 6.70936 12.98C6.74936 13 6.78936 13.025 6.82936 13.055C6.86936 13.095 6.90436 13.15 6.93436 13.22C6.96436 13.29 6.97936 13.385 6.97936 13.505C6.97936 13.595 6.96436 13.685 6.94436 13.775C6.92436 13.865 6.88436 13.945 6.83436 14.01C6.79436 14.06 6.74936 14.095 6.70436 14.12C6.65936 14.15 6.61436 14.17 6.56436 14.18C6.51436 14.195 6.46936 14.205 6.41936 14.205C6.36936 14.205 6.31936 14.205 6.27436 14.205ZM6.37936 15.94V15.735C6.37936 15.72 6.37436 15.705 6.36936 15.695C6.35936 15.685 6.34436 15.675 6.31936 15.675H5.94936V14.555H6.30936C6.50936 14.555 6.66936 14.53 6.79436 14.48C6.91936 14.43 7.01936 14.37 7.08936 14.305C7.15936 14.24 7.22936 14.14 7.29436 14.01C7.35436 13.88 7.38936 13.705 7.38936 13.485C7.38936 13.37 7.37436 13.25 7.34436 13.125C7.31436 13.005 7.24436 12.895 7.14436 12.795C7.08936 12.745 7.02936 12.71 6.96936 12.68C6.90436 12.65 6.83936 12.63 6.77936 12.615C6.71936 12.6 6.65936 12.59 6.60436 12.585C6.54936 12.58 6.50436 12.575 6.46436 12.575H5.22436C5.19436 12.575 5.17936 12.585 5.17436 12.595C5.16436 12.605 5.16436 12.62 5.16436 12.635V12.84C5.16436 12.86 5.16436 12.875 5.17436 12.885C5.17936 12.895 5.19436 12.9 5.22436 12.9H5.53936V15.675H5.22436C5.20436 15.675 5.18936 15.68 5.17936 15.685C5.16936 15.695 5.16436 15.71 5.16436 15.735V15.94C5.16436 15.96 5.16436 15.975 5.17436 15.985C5.17936 15.995 5.19436 16 5.22436 16H6.31936C6.33436 16 6.34936 16 6.35936 15.99C6.36936 15.985 6.37936 15.97 6.37936 15.94ZM10.4538 15.675V14.59H10.7338C10.7488 14.59 10.7638 14.59 10.7738 14.58C10.7838 14.575 10.7938 14.56 10.7938 14.53V14.325C10.7938 14.3 10.7838 14.285 10.7738 14.275C10.7638 14.27 10.7488 14.265 10.7338 14.265H9.64377C9.61377 14.265 9.59877 14.275 9.59377 14.285C9.58377 14.295 9.58377 14.31 9.58377 14.325V14.53C9.58377 14.56 9.58877 14.575 9.59877 14.58C9.60877 14.59 9.62377 14.59 9.64377 14.59H10.0438V15.64C9.98377 15.67 9.90877 15.695 9.82877 15.71C9.74877 15.73 9.67377 15.735 9.60377 15.735C9.50877 15.735 9.42877 15.725 9.36377 15.695C9.29877 15.67 9.24377 15.64 9.19877 15.6C9.14877 15.565 9.11377 15.525 9.08377 15.48C9.05377 15.44 9.03377 15.4 9.01877 15.365C8.96877 15.275 8.93377 15.18 8.90877 15.075C8.88377 14.975 8.86377 14.87 8.85377 14.765C8.83877 14.665 8.82877 14.565 8.82877 14.465C8.82377 14.37 8.82377 14.285 8.82377 14.205C8.82377 14.145 8.82377 14.07 8.82877 13.975C8.82877 13.885 8.83877 13.785 8.85377 13.68C8.86877 13.58 8.89377 13.475 8.92377 13.375C8.95377 13.275 8.99377 13.18 9.05377 13.1C9.12877 12.995 9.21377 12.925 9.30877 12.89C9.40377 12.86 9.48877 12.84 9.56877 12.84C9.66877 12.84 9.76377 12.86 9.84377 12.89C9.92377 12.925 9.97877 12.95 10.0088 12.965L10.0388 12.98V13.405C10.0388 13.435 10.0438 13.45 10.0538 13.455C10.0638 13.465 10.0788 13.465 10.0988 13.465H10.3188C10.3438 13.465 10.3588 13.46 10.3688 13.45C10.3738 13.44 10.3788 13.425 10.3788 13.405V12.85C10.3788 12.835 10.3738 12.82 10.3738 12.805C10.3688 12.79 10.3538 12.775 10.3288 12.755C10.2988 12.735 10.2588 12.71 10.2088 12.68C10.1588 12.65 10.0988 12.625 10.0388 12.6C9.97377 12.575 9.90377 12.555 9.82377 12.535C9.74377 12.515 9.66377 12.505 9.57377 12.505C9.49877 12.505 9.42377 12.515 9.34377 12.525C9.26377 12.54 9.18377 12.565 9.10377 12.595C9.02377 12.63 8.94877 12.675 8.87377 12.735C8.79877 12.795 8.73377 12.87 8.67377 12.96C8.60377 13.06 8.55377 13.17 8.51377 13.285C8.47377 13.405 8.44377 13.52 8.42377 13.635C8.40377 13.755 8.38877 13.865 8.38377 13.975C8.37377 14.085 8.37377 14.175 8.37377 14.255C8.37377 14.475 8.38877 14.7 8.42377 14.925C8.45377 15.155 8.53377 15.365 8.65377 15.565C8.68377 15.615 8.71877 15.67 8.76877 15.73C8.81877 15.79 8.87877 15.845 8.95377 15.895C9.02877 15.945 9.11877 15.99 9.22377 16.02C9.32377 16.055 9.44877 16.07 9.59377 16.07C9.69877 16.07 9.81877 16.06 9.94877 16.035C10.0788 16.015 10.1988 15.975 10.3088 15.925C10.3438 15.905 10.3738 15.89 10.3938 15.88C10.4138 15.87 10.4238 15.855 10.4338 15.835C10.4438 15.82 10.4488 15.8 10.4488 15.775C10.4488 15.755 10.4538 15.72 10.4538 15.675Z" fill="white"/>
<path fill-rule="evenodd" clip-rule="evenodd" d="M13.0002 6.00586H8.00061C8.00061 6.00586 7.48513 5.99142 7.23962 5.75488C6.99412 5.51835 7 5.04181 7 5.04181V0.00585938L13.0002 6.00586Z" fill="white" fill-opacity="0.4"/>
</svg>
