<svg width="13" height="17" viewBox="0 0 13 17" fill="none" xmlns="http://www.w3.org/2000/svg">
<path fill-rule="evenodd" clip-rule="evenodd" d="M0 2C0 0.89543 0.895431 0 2 0L6.97485 0L13 6.0282V15C13 16.1046 12.1046 17 11 17H2C0.89543 17 0 16.1046 0 15V2Z" fill="#CD0000"/>
<path d="M3.33002 14.205C3.37669 14.205 3.42502 14.205 3.47502 14.205C3.52502 14.2017 3.57335 14.1933 3.62002 14.18C3.67002 14.1667 3.71669 14.1467 3.76002 14.12C3.80669 14.0933 3.85002 14.0567 3.89002 14.01C3.94335 13.9433 3.98002 13.865 4.00002 13.775C4.02335 13.6817 4.03502 13.5917 4.03502 13.505C4.03502 13.385 4.02002 13.29 3.99002 13.22C3.96002 13.1467 3.92502 13.0917 3.88502 13.055C3.84835 13.0217 3.80835 12.9967 3.76502 12.98C3.72502 12.9633 3.68169 12.9517 3.63502 12.945C3.59169 12.935 3.54835 12.93 3.50502 12.93C3.46169 12.9267 3.42335 12.925 3.39002 12.925H3.00502V14.205H3.33002ZM3.43502 15.94C3.43502 15.9667 3.42835 15.9833 3.41502 15.99C3.40502 15.9967 3.39169 16 3.37502 16H2.28002C2.25335 16 2.23669 15.995 2.23002 15.985C2.22335 15.9717 2.22002 15.9567 2.22002 15.94V15.735C2.22002 15.7083 2.22502 15.6917 2.23502 15.685C2.24835 15.6783 2.26335 15.675 2.28002 15.675H2.59502V12.9H2.28002C2.25335 12.9 2.23669 12.895 2.23002 12.885C2.22335 12.8717 2.22002 12.8567 2.22002 12.84V12.635C2.22002 12.6183 2.22335 12.605 2.23002 12.595C2.23669 12.5817 2.25335 12.575 2.28002 12.575H3.52002C3.56002 12.575 3.60669 12.5783 3.66002 12.585C3.71669 12.5883 3.77502 12.5983 3.83502 12.615C3.89835 12.6283 3.96169 12.65 4.02502 12.68C4.08835 12.7067 4.14669 12.745 4.20002 12.795C4.30335 12.8917 4.37002 13.0017 4.40002 13.125C4.43002 13.2483 4.44502 13.3683 4.44502 13.485C4.44502 13.705 4.41335 13.88 4.35002 14.01C4.28669 14.14 4.21835 14.2383 4.14502 14.305C4.07502 14.3683 3.97669 14.4267 3.85002 14.48C3.72669 14.53 3.56502 14.555 3.36502 14.555H3.00502V15.675H3.37502C3.40169 15.675 3.41835 15.6817 3.42502 15.695C3.43169 15.705 3.43502 15.7183 3.43502 15.735V15.94ZM6.46443 15.65C6.65443 15.65 6.81277 15.61 6.93943 15.53C7.0661 15.4467 7.16277 15.3033 7.22943 15.1C7.26943 14.9767 7.2961 14.845 7.30943 14.705C7.32277 14.565 7.32943 14.4267 7.32943 14.29C7.32943 14.08 7.31943 13.8967 7.29943 13.74C7.28277 13.5833 7.24777 13.4467 7.19443 13.33C7.1511 13.2367 7.09777 13.1633 7.03443 13.11C6.97443 13.0533 6.90943 13.0117 6.83943 12.985C6.76943 12.9583 6.69943 12.9417 6.62943 12.935C6.55943 12.9283 6.49277 12.925 6.42943 12.925H6.15443V15.65H6.46443ZM6.56443 12.575C6.75443 12.575 6.9061 12.5983 7.01943 12.645C7.1361 12.6917 7.2261 12.7383 7.28943 12.785C7.39277 12.865 7.4761 12.9633 7.53943 13.08C7.6061 13.1933 7.6561 13.3167 7.68943 13.45C7.7261 13.5833 7.74943 13.72 7.75943 13.86C7.77277 13.9967 7.77943 14.1283 7.77943 14.255C7.77943 14.355 7.77443 14.47 7.76443 14.6C7.75777 14.73 7.73943 14.8617 7.70943 14.995C7.67943 15.125 7.6361 15.2517 7.57943 15.375C7.52277 15.4983 7.44777 15.605 7.35443 15.695C7.27777 15.765 7.1961 15.8217 7.10943 15.865C7.02277 15.905 6.93443 15.935 6.84443 15.955C6.75777 15.975 6.67277 15.9883 6.58943 15.995C6.50943 15.9983 6.43943 16 6.37943 16H5.42943C5.40277 16 5.3861 15.995 5.37943 15.985C5.37277 15.9717 5.36943 15.9567 5.36943 15.94V15.735C5.36943 15.7083 5.37443 15.6917 5.38443 15.685C5.39777 15.6783 5.41277 15.675 5.42943 15.675H5.74443V12.9H5.42943C5.40277 12.9 5.3861 12.895 5.37943 12.885C5.37277 12.8717 5.36943 12.8567 5.36943 12.84V12.635C5.36943 12.6183 5.37277 12.605 5.37943 12.595C5.3861 12.5817 5.40277 12.575 5.42943 12.575H6.56443ZM10.0205 15.675C10.0472 15.675 10.0639 15.6817 10.0705 15.695C10.0772 15.705 10.0805 15.7183 10.0805 15.735V15.94C10.0805 15.9667 10.0739 15.9833 10.0605 15.99C10.0505 15.9967 10.0372 16 10.0205 16H8.92553C8.89886 16 8.88219 15.995 8.87553 15.985C8.86886 15.9717 8.86553 15.9567 8.86553 15.94V15.735C8.86553 15.7083 8.87053 15.6917 8.88053 15.685C8.89386 15.6783 8.90886 15.675 8.92553 15.675H9.24053V12.9H8.92553C8.89886 12.9 8.88219 12.895 8.87553 12.885C8.86886 12.8717 8.86553 12.8567 8.86553 12.84V12.635C8.86553 12.6183 8.86886 12.605 8.87553 12.595C8.88219 12.5817 8.89886 12.575 8.92553 12.575H10.8155C10.8422 12.575 10.8589 12.5817 10.8655 12.595C10.8722 12.605 10.8755 12.6183 10.8755 12.635V13.325C10.8755 13.3417 10.8722 13.3567 10.8655 13.37C10.8589 13.38 10.8422 13.385 10.8155 13.385H10.5955C10.5689 13.385 10.5522 13.38 10.5455 13.37C10.5389 13.3567 10.5355 13.3417 10.5355 13.325V12.925H9.65053V14.07H10.6355C10.6622 14.07 10.6789 14.0767 10.6855 14.09C10.6922 14.1 10.6955 14.1133 10.6955 14.13V14.36C10.6955 14.3867 10.6889 14.4033 10.6755 14.41C10.6655 14.4167 10.6522 14.42 10.6355 14.42H9.65053V15.675H10.0205Z" fill="white"/>
<path fill-rule="evenodd" clip-rule="evenodd" d="M13.0002 6.00586H8.00061C8.00061 6.00586 7.48513 5.99142 7.23962 5.75488C6.99412 5.51835 7 5.04181 7 5.04181V0.00585938L13.0002 6.00586Z" fill="white" fill-opacity="0.4"/>
</svg>
