<svg width="13" height="17" viewBox="0 0 13 17" fill="none" xmlns="http://www.w3.org/2000/svg">
<path fill-rule="evenodd" clip-rule="evenodd" d="M0 2C0 0.89543 0.895431 0 2 0L6.97485 0L13 6.0282V15C13 16.1046 12.1046 17 11 17H2C0.89543 17 0 16.1046 0 15V2Z" fill="#F3AE4A"/>
<path d="M3.01996 14.205H2.69496V12.925H3.07996C3.10996 12.925 3.14996 12.93 3.19496 12.93C3.23496 12.93 3.27996 12.935 3.32496 12.945C3.36996 12.955 3.41496 12.965 3.45496 12.98C3.49496 13 3.53496 13.025 3.57496 13.055C3.61496 13.095 3.64996 13.15 3.67996 13.22C3.70996 13.29 3.72496 13.385 3.72496 13.505C3.72496 13.595 3.70996 13.685 3.68996 13.775C3.66996 13.865 3.62996 13.945 3.57996 14.01C3.53996 14.06 3.49496 14.095 3.44996 14.12C3.40496 14.15 3.35996 14.17 3.30996 14.18C3.25996 14.195 3.21496 14.205 3.16496 14.205C3.11496 14.205 3.06496 14.205 3.01996 14.205ZM3.12496 15.94V15.735C3.12496 15.72 3.11996 15.705 3.11496 15.695C3.10496 15.685 3.08996 15.675 3.06496 15.675H2.69496V14.555H3.05496C3.25496 14.555 3.41496 14.53 3.53996 14.48C3.66496 14.43 3.76496 14.37 3.83496 14.305C3.90496 14.24 3.97496 14.14 4.03996 14.01C4.09996 13.88 4.13496 13.705 4.13496 13.485C4.13496 13.37 4.11996 13.25 4.08996 13.125C4.05996 13.005 3.98996 12.895 3.88996 12.795C3.83496 12.745 3.77496 12.71 3.71496 12.68C3.64996 12.65 3.58496 12.63 3.52496 12.615C3.46496 12.6 3.40496 12.59 3.34996 12.585C3.29496 12.58 3.24996 12.575 3.20996 12.575H1.96996C1.93996 12.575 1.92496 12.585 1.91996 12.595C1.90996 12.605 1.90996 12.62 1.90996 12.635V12.84C1.90996 12.86 1.90996 12.875 1.91996 12.885C1.92496 12.895 1.93996 12.9 1.96996 12.9H2.28496V15.675H1.96996C1.94996 15.675 1.93496 15.68 1.92496 15.685C1.91496 15.695 1.90996 15.71 1.90996 15.735V15.94C1.90996 15.96 1.90996 15.975 1.91996 15.985C1.92496 15.995 1.93996 16 1.96996 16H3.06496C3.07996 16 3.09496 16 3.10496 15.99C3.11496 15.985 3.12496 15.97 3.12496 15.94ZM7.43438 15.94V12.9H7.75438C7.76938 12.9 7.78438 12.9 7.79438 12.89C7.80438 12.885 7.81438 12.87 7.81438 12.84V12.635C7.81438 12.61 7.80438 12.595 7.79438 12.585C7.78438 12.58 7.76938 12.575 7.75438 12.575H6.74438C6.71438 12.575 6.69938 12.585 6.69438 12.595C6.68438 12.605 6.68438 12.62 6.68438 12.635V12.84C6.68438 12.86 6.68438 12.875 6.69438 12.885C6.69938 12.895 6.71438 12.9 6.74438 12.9H7.06938V15.08C7.06938 15.11 7.06938 15.14 7.07938 15.17C7.08438 15.205 7.09438 15.255 7.10438 15.325L7.09438 15.335L7.05938 15.205C7.04938 15.175 7.03938 15.14 7.02938 15.095C7.01938 15.055 6.99938 15.005 6.97438 14.95L5.86938 12.62C5.85438 12.595 5.83938 12.58 5.82938 12.58C5.81438 12.58 5.80438 12.575 5.79438 12.575H5.09438C5.07438 12.575 5.05938 12.58 5.04938 12.59C5.03938 12.6 5.03438 12.615 5.03438 12.635V12.84C5.03438 12.86 5.03438 12.875 5.04438 12.885C5.04938 12.895 5.06438 12.9 5.09438 12.9H5.40938V15.675H5.09438C5.07438 15.675 5.05938 15.68 5.04938 15.685C5.03938 15.695 5.03438 15.71 5.03438 15.735V15.94C5.03438 15.97 5.03938 15.985 5.04938 15.99C5.05938 16 5.07438 16 5.09438 16H6.09938C6.12438 16 6.13938 15.995 6.14938 15.985C6.15438 15.975 6.15938 15.96 6.15938 15.94V15.735C6.15938 15.72 6.15438 15.705 6.14938 15.695C6.13938 15.685 6.12438 15.675 6.09938 15.675H5.77438V13.5C5.77438 13.44 5.76938 13.37 5.75938 13.285C5.74938 13.205 5.73438 13.125 5.72438 13.055L5.73438 13.045C5.74938 13.12 5.76438 13.18 5.77438 13.225C5.78438 13.27 5.79938 13.305 5.80938 13.335C5.81938 13.365 5.82438 13.39 5.83438 13.41C5.84438 13.43 5.85438 13.455 5.86938 13.48L7.01938 15.95C7.02438 15.965 7.03438 15.975 7.04438 15.985C7.05438 15.995 7.06938 16 7.09938 16H7.37438C7.39938 16 7.41438 15.995 7.42438 15.985C7.42937 15.975 7.43438 15.96 7.43438 15.94ZM10.8615 15.675V14.59H11.1415C11.1565 14.59 11.1715 14.59 11.1815 14.58C11.1915 14.575 11.2015 14.56 11.2015 14.53V14.325C11.2015 14.3 11.1915 14.285 11.1815 14.275C11.1715 14.27 11.1565 14.265 11.1415 14.265H10.0515C10.0215 14.265 10.0065 14.275 10.0015 14.285C9.99148 14.295 9.99148 14.31 9.99148 14.325V14.53C9.99148 14.56 9.99648 14.575 10.0065 14.58C10.0165 14.59 10.0315 14.59 10.0515 14.59H10.4515V15.64C10.3915 15.67 10.3165 15.695 10.2365 15.71C10.1565 15.73 10.0815 15.735 10.0115 15.735C9.91648 15.735 9.83648 15.725 9.77148 15.695C9.70648 15.67 9.65148 15.64 9.60648 15.6C9.55648 15.565 9.52148 15.525 9.49148 15.48C9.46148 15.44 9.44148 15.4 9.42648 15.365C9.37648 15.275 9.34148 15.18 9.31648 15.075C9.29148 14.975 9.27148 14.87 9.26148 14.765C9.24648 14.665 9.23648 14.565 9.23648 14.465C9.23148 14.37 9.23148 14.285 9.23148 14.205C9.23148 14.145 9.23148 14.07 9.23648 13.975C9.23648 13.885 9.24648 13.785 9.26148 13.68C9.27648 13.58 9.30148 13.475 9.33148 13.375C9.36148 13.275 9.40148 13.18 9.46148 13.1C9.53648 12.995 9.62148 12.925 9.71648 12.89C9.81148 12.86 9.89648 12.84 9.97648 12.84C10.0765 12.84 10.1715 12.86 10.2515 12.89C10.3315 12.925 10.3865 12.95 10.4165 12.965L10.4465 12.98V13.405C10.4465 13.435 10.4515 13.45 10.4615 13.455C10.4715 13.465 10.4865 13.465 10.5065 13.465H10.7265C10.7515 13.465 10.7665 13.46 10.7765 13.45C10.7815 13.44 10.7865 13.425 10.7865 13.405V12.85C10.7865 12.835 10.7815 12.82 10.7815 12.805C10.7765 12.79 10.7615 12.775 10.7365 12.755C10.7065 12.735 10.6665 12.71 10.6165 12.68C10.5665 12.65 10.5065 12.625 10.4465 12.6C10.3815 12.575 10.3115 12.555 10.2315 12.535C10.1515 12.515 10.0715 12.505 9.98148 12.505C9.90648 12.505 9.83148 12.515 9.75148 12.525C9.67148 12.54 9.59148 12.565 9.51148 12.595C9.43148 12.63 9.35648 12.675 9.28148 12.735C9.20648 12.795 9.14148 12.87 9.08148 12.96C9.01148 13.06 8.96148 13.17 8.92148 13.285C8.88148 13.405 8.85148 13.52 8.83148 13.635C8.81148 13.755 8.79648 13.865 8.79148 13.975C8.78148 14.085 8.78148 14.175 8.78148 14.255C8.78148 14.475 8.79648 14.7 8.83148 14.925C8.86148 15.155 8.94148 15.365 9.06148 15.565C9.09148 15.615 9.12648 15.67 9.17648 15.73C9.22648 15.79 9.28648 15.845 9.36148 15.895C9.43648 15.945 9.52648 15.99 9.63148 16.02C9.73148 16.055 9.85648 16.07 10.0015 16.07C10.1065 16.07 10.2265 16.06 10.3565 16.035C10.4865 16.015 10.6065 15.975 10.7165 15.925C10.7515 15.905 10.7815 15.89 10.8015 15.88C10.8215 15.87 10.8315 15.855 10.8415 15.835C10.8515 15.82 10.8565 15.8 10.8565 15.775C10.8565 15.755 10.8615 15.72 10.8615 15.675Z" fill="white"/>
<path fill-rule="evenodd" clip-rule="evenodd" d="M13.0002 6.00586H8.00061C8.00061 6.00586 7.48513 5.99142 7.23962 5.75488C6.99412 5.51835 7 5.04181 7 5.04181V0.00585938L13.0002 6.00586Z" fill="white" fill-opacity="0.4"/>
</svg>
