<svg width="13" height="17" viewBox="0 0 13 17" fill="none" xmlns="http://www.w3.org/2000/svg">
<path fill-rule="evenodd" clip-rule="evenodd" d="M0 2C0 0.89543 0.895431 0 2 0L6.97485 0L13 6.0282V15C13 16.1046 12.1046 17 11 17H2C0.89543 17 0 16.1046 0 15V2Z" fill="#197342"/>
<path d="M4.69596 15.94C4.69596 15.9667 4.68929 15.9833 4.67596 15.99C4.66596 15.9967 4.65262 16 4.63596 16H3.67596C3.64929 16 3.63262 15.995 3.62596 15.985C3.61929 15.9717 3.61596 15.9567 3.61596 15.94V15.735C3.61596 15.7183 3.61929 15.705 3.62596 15.695C3.63262 15.6817 3.64929 15.675 3.67596 15.675H3.94596L3.47096 14.78C3.45762 14.7533 3.44762 14.735 3.44096 14.725C3.43429 14.7117 3.42762 14.7 3.42096 14.69C3.41762 14.6767 3.41262 14.66 3.40596 14.64C3.39929 14.62 3.38596 14.5883 3.36596 14.545L3.26596 14.775L2.79096 15.675H3.05596C3.08262 15.675 3.09929 15.6817 3.10596 15.695C3.11262 15.705 3.11596 15.7183 3.11596 15.735V15.94C3.11596 15.9567 3.11262 15.9717 3.10596 15.985C3.09929 15.995 3.08262 16 3.05596 16H2.10596C2.07929 16 2.06262 15.995 2.05596 15.985C2.04929 15.9717 2.04596 15.9567 2.04596 15.94V15.735C2.04596 15.7083 2.05096 15.6917 2.06096 15.685C2.07429 15.6783 2.08929 15.675 2.10596 15.675H2.34096L3.13096 14.215L2.41096 12.9H2.18096C2.15429 12.9 2.13762 12.895 2.13096 12.885C2.12429 12.8717 2.12096 12.8567 2.12096 12.84V12.635C2.12096 12.6183 2.12429 12.605 2.13096 12.595C2.13762 12.5817 2.15429 12.575 2.18096 12.575H3.14096C3.16762 12.575 3.18429 12.5817 3.19096 12.595C3.19762 12.605 3.20096 12.6183 3.20096 12.635V12.84C3.20096 12.8567 3.19762 12.8717 3.19096 12.885C3.18429 12.895 3.16762 12.9 3.14096 12.9H2.86096L3.25096 13.615L3.37596 13.875C3.40262 13.805 3.42596 13.7483 3.44596 13.705C3.46929 13.6617 3.48929 13.625 3.50596 13.595L3.87596 12.9H3.64096C3.61429 12.9 3.59762 12.895 3.59096 12.885C3.58429 12.8717 3.58096 12.8567 3.58096 12.84V12.635C3.58096 12.6183 3.58429 12.605 3.59096 12.595C3.59762 12.5817 3.61429 12.575 3.64096 12.575H4.54596C4.57262 12.575 4.58929 12.5817 4.59596 12.595C4.60262 12.605 4.60596 12.6183 4.60596 12.635V12.84C4.60596 12.8667 4.59929 12.8833 4.58596 12.89C4.57596 12.8967 4.56262 12.9 4.54596 12.9H4.32096L3.59096 14.2L4.40596 15.675H4.63596C4.65262 15.675 4.66596 15.6783 4.67596 15.685C4.68929 15.6917 4.69596 15.7083 4.69596 15.735V15.94ZM7.44428 15.16C7.45761 15.1233 7.48428 15.1117 7.52428 15.125L7.75428 15.21C7.78094 15.22 7.79428 15.2333 7.79428 15.25C7.79428 15.2633 7.79094 15.2783 7.78428 15.295L7.54928 15.945C7.53928 15.9717 7.52761 15.9883 7.51428 15.995C7.50094 15.9983 7.48761 16 7.47428 16H5.64428C5.61761 16 5.60094 15.995 5.59428 15.985C5.58761 15.9717 5.58428 15.9567 5.58428 15.94V15.735C5.58428 15.7083 5.58928 15.6917 5.59928 15.685C5.61261 15.6783 5.62761 15.675 5.64428 15.675H5.95928V12.9H5.64428C5.61761 12.9 5.60094 12.895 5.59428 12.885C5.58761 12.8717 5.58428 12.8567 5.58428 12.84V12.635C5.58428 12.6183 5.58761 12.605 5.59428 12.595C5.60094 12.5817 5.61761 12.575 5.64428 12.575H6.68428C6.71094 12.575 6.72761 12.5817 6.73428 12.595C6.74094 12.605 6.74428 12.6183 6.74428 12.635V12.84C6.74428 12.8567 6.74094 12.8717 6.73428 12.885C6.72761 12.895 6.71094 12.9 6.68428 12.9H6.36928V15.65H7.26928L7.44428 15.16ZM10.3817 12.97L10.3467 12.955C10.3 12.935 10.26 12.9183 10.2267 12.905C10.1934 12.8883 10.16 12.8767 10.1267 12.87C10.0934 12.86 10.0567 12.8533 10.0167 12.85C9.98003 12.8433 9.9367 12.84 9.8867 12.84C9.72003 12.84 9.59003 12.8883 9.4967 12.985C9.40337 13.0817 9.3567 13.205 9.3567 13.355C9.3567 13.4817 9.38503 13.5833 9.4417 13.66C9.5017 13.7333 9.57337 13.7983 9.6567 13.855C9.7367 13.9083 9.81503 13.955 9.8917 13.995C9.96837 14.0317 10.05 14.0733 10.1367 14.12C10.23 14.1733 10.3167 14.2317 10.3967 14.295C10.48 14.355 10.5517 14.425 10.6117 14.505C10.675 14.5817 10.725 14.6683 10.7617 14.765C10.7984 14.8617 10.8167 14.97 10.8167 15.09C10.8167 15.21 10.795 15.33 10.7517 15.45C10.7117 15.5667 10.6467 15.6717 10.5567 15.765C10.47 15.855 10.36 15.9283 10.2267 15.985C10.0934 16.0417 9.9367 16.07 9.7567 16.07C9.67337 16.07 9.5867 16.0617 9.4967 16.045C9.41003 16.0317 9.3267 16.015 9.2467 15.995C9.1667 15.9717 9.09337 15.9483 9.0267 15.925C8.96337 15.8983 8.91337 15.8733 8.8767 15.85C8.86337 15.8433 8.8517 15.8333 8.8417 15.82C8.8317 15.8033 8.8267 15.775 8.8267 15.735V15.155C8.8267 15.1283 8.8317 15.1117 8.8417 15.105C8.85503 15.0983 8.87003 15.095 8.8867 15.095H9.1067C9.13337 15.095 9.15003 15.1017 9.1567 15.115C9.16337 15.125 9.1667 15.1383 9.1667 15.155V15.565L9.1917 15.575C9.25503 15.6017 9.33503 15.635 9.4317 15.675C9.5317 15.715 9.64503 15.735 9.7717 15.735C9.87837 15.735 9.96837 15.7183 10.0417 15.685C10.1184 15.6483 10.18 15.6017 10.2267 15.545C10.2767 15.4883 10.3117 15.425 10.3317 15.355C10.355 15.2817 10.3667 15.21 10.3667 15.14C10.3667 15.0467 10.3517 14.9667 10.3217 14.9C10.295 14.8333 10.2567 14.775 10.2067 14.725C10.1567 14.6717 10.1 14.625 10.0367 14.585C9.97337 14.5417 9.9067 14.5 9.8367 14.46C9.72337 14.3933 9.62503 14.3367 9.5417 14.29C9.45837 14.2433 9.38003 14.1933 9.3067 14.14C9.2567 14.1033 9.2067 14.0617 9.1567 14.015C9.11003 13.9683 9.0667 13.9167 9.0267 13.86C8.99003 13.8 8.96003 13.7333 8.9367 13.66C8.9167 13.5833 8.9067 13.4967 8.9067 13.4C8.9067 13.3 8.91837 13.2133 8.9417 13.14C8.96837 13.0633 8.99837 12.9983 9.0317 12.945C9.06503 12.8883 9.10003 12.8433 9.1367 12.81C9.17337 12.7733 9.20337 12.745 9.2267 12.725C9.32337 12.6483 9.42837 12.5933 9.5417 12.56C9.65503 12.5233 9.77503 12.505 9.9017 12.505C10.0484 12.505 10.185 12.5233 10.3117 12.56C10.4417 12.5933 10.545 12.6317 10.6217 12.675C10.665 12.6983 10.6917 12.7183 10.7017 12.735C10.715 12.7483 10.7217 12.7783 10.7217 12.825V13.375C10.7217 13.3917 10.7184 13.4067 10.7117 13.42C10.705 13.43 10.6884 13.435 10.6617 13.435H10.4417C10.415 13.435 10.3984 13.43 10.3917 13.42C10.385 13.4067 10.3817 13.3917 10.3817 13.375V12.97Z" fill="white"/>
<path fill-rule="evenodd" clip-rule="evenodd" d="M13.0002 6.00586H8.00061C8.00061 6.00586 7.48513 5.99142 7.23962 5.75488C6.99412 5.51835 7 5.04181 7 5.04181V0.00585938L13.0002 6.00586Z" fill="white" fill-opacity="0.4"/>
</svg>
